<?xml version="1.0" encoding="UTF-8" standalone="no"?>
<!DOCTYPE svg PUBLIC "-//W3C//DTD SVG 1.1//EN" "http://www.w3.org/Graphics/SVG/1.1/DTD/svg11.dtd">
<svg width="100%" height="100%" viewBox="0 0 2649 1559" version="1.1" xmlns="http://www.w3.org/2000/svg" xmlns:xlink="http://www.w3.org/1999/xlink" xml:space="preserve" xmlns:serif="http://www.serif.com/" style="fill-rule:evenodd;clip-rule:evenodd;stroke-linejoin:round;stroke-miterlimit:2;">
    <g>
        <g transform="matrix(-0.999998,-0.00198763,0.00198763,-0.999998,2647.45,1561.63)">
            <rect x="183" y="0.001" width="2466" height="175" style="fill:rgb(178,224,247);"/>
        </g>
        <g transform="matrix(-0.999998,-0.00198763,0.00198763,-0.999998,2647.45,1561.63)">
            <rect x="183" y="172" width="2466" height="175" style="fill:rgb(150,220,255);"/>
        </g>
        <g transform="matrix(-0.999998,-0.00198763,0.00198763,-0.999998,2647.45,1561.63)">
            <rect x="183" y="343" width="2466" height="175" style="fill:rgb(125,211,255);"/>
        </g>
        <g transform="matrix(-0.999998,-0.00198763,0.00198763,-0.999998,2647.45,1561.63)">
            <rect x="183" y="512" width="2466" height="175" style="fill:rgb(90,200,255);"/>
        </g>
        <g transform="matrix(-0.999998,-0.00198763,0.00198763,-0.999998,2647.45,1561.63)">
            <rect x="183" y="1352" width="2466" height="207" style="fill:rgb(232,174,58);"/>
        </g>
        <g transform="matrix(-0.999998,-0.00198763,0.00198763,-0.999998,2647.45,1561.63)">
            <rect x="183" y="1145" width="2466" height="207" style="fill:rgb(234,200,57);"/>
        </g>
        <g transform="matrix(-0.999998,-0.00198763,0.00198763,-0.999998,2647.45,1561.63)">
            <rect x="183" y="939.001" width="2466" height="207" style="fill:rgb(244,219,74);"/>
        </g>
        <g transform="matrix(-0.999998,-0.00198763,0.00198763,-0.999998,2647.45,1561.63)">
            <rect x="183" y="662.001" width="2466" height="279" style="fill:rgb(250,229,134);"/>
        </g>
        <g transform="matrix(-0.999998,-0.00198763,0.00198763,-0.999998,2647.45,1561.63)">
            <path d="M183,662.001L852.837,828.066L1192.28,908.906L2061.95,1013.25L2649,1170L2649,662.001L183,662.001Z" style="fill:rgb(4,71,127);"/>
        </g>
        <g transform="matrix(-0.999998,-0.00198763,0.00198763,-0.999998,2647.45,1561.63)">
            <path d="M1918.79,291.391C1918.79,394.879 1834.88,478.776 1731.4,478.776C1627.9,478.776 1544,394.879 1544,291.391C1544,187.897 1627.9,104 1731.4,104C1834.88,104 1918.79,187.897 1918.79,291.391" style="fill:rgb(232,174,58);"/>
        </g>
        <g transform="matrix(-0.999998,-0.00198763,0.00198763,-0.999998,2647.45,1561.63)">
            <path d="M2214.92,984.818L1774.58,865L1609,1007.11L1727.39,1209L2252,1172.35L2214.92,984.818Z" style="fill:rgb(93,95,91);"/>
        </g>
        <g transform="matrix(-0.999998,-0.00198763,0.00198763,-0.999998,2647.45,1561.63)">
            <path d="M2290,1135.52L2056.04,1093L1931,1187.49L2089.15,1256L2268.68,1230.01L2290,1135.52Z" style="fill:rgb(140,140,140);"/>
        </g>
        <g transform="matrix(-0.999998,-0.00198763,0.00198763,-0.999998,2647.45,1561.63)">
            <path d="M662,713.001L1218.37,729.028L1368,746L662,746L662,713.001ZM926,828.238L1138.64,807L1326.17,828L1510.49,833.9L1877,843.34L1329.38,849.002L1140.24,827.057L926,828.238ZM2649,719.001L2305,728.978L2649,738L2649,719.001ZM2399.13,854.958L2271.64,852.387L2149,834L2240.1,865L2606,863.409L2399.13,854.958ZM1558,741.522L1802.01,729.501L1978.6,746.001L2099,729.501L1986.63,732.329L1797.19,713L1558,741.522Z" style="fill:rgb(0,93,156);"/>
        </g>
        <g transform="matrix(-0.999998,-0.00198763,0.00198763,-0.999998,2647.45,1561.63)">
            <path d="M0,175.332L0,342.082L392.371,293.04L767.521,323.556L979.569,243.632L757.726,163.708L424.985,163.708L212.97,139L0,175.332ZM1826.23,288.41L1698.37,307.556L1682,385.1L2074.94,357.473L2256.6,362.498L2362.79,307.244L2221.31,246.599L1998.09,240.69L1826.23,288.41ZM2280.99,415L2108.34,428.629L2015,463.223L2082.66,495.723L2248.33,490.481L2367.32,502.011L2433.27,467.418L2280.99,415Z" style="fill:rgb(239,248,252);"/>
        </g>
        <g transform="matrix(-0.999998,-0.00198763,0.00198763,-0.999998,2647.45,1561.63)">
            <path d="M1246.87,1105.05L1308.97,1109L1331,1073.15L1285.44,1036L1218,1075.53L1246.87,1105.05ZM2064.87,1286.05L2126.97,1290L2149,1254.15L2103.44,1217L2036,1256.53L2064.87,1286.05Z" style="fill:rgb(93,95,91);"/>
        </g>
        <g transform="matrix(-0.999998,-0.00198763,0.00198763,-0.999998,2647.45,1561.63)">
            <path d="M1474.45,652.153L1474.45,426L1606.94,589.168L1474.45,652.153Z" style="fill:rgb(69,148,209);"/>
        </g>
        <g transform="matrix(-0.999998,-0.00198763,0.00198763,-0.999998,2647.45,1561.63)">
            <path d="M1402,627.352L1628.16,627.352L1615.43,663.902L1598.29,676.959L1429.41,676.959L1412.28,659.171L1402,627.352Z" style="fill:rgb(234,81,88);"/>
        </g>
        <g transform="matrix(-0.999998,-0.00198763,0.00198763,-0.999998,2647.45,1561.63)">
            <path d="M920.383,1179.3L678.245,1095.49L587.189,1194.89L652.29,1336.13L900.467,1314.06L920.383,1179.3Z" style="fill:rgb(62,63,62);"/>
        </g>
        <g transform="matrix(-0.999998,-0.00198763,0.00198763,-0.999998,2647.45,1561.63)">
            <path d="M591.876,1361.25L735.766,1338.14L770.975,1214.23L659.571,1192.01L570,1265.53L591.876,1361.25Z" style="fill:rgb(93,95,91);"/>
        </g>
        <g transform="matrix(-0.999998,-0.00198763,0.00198763,-0.999998,2647.45,1561.63)">
            <path d="M870.948,889.374L853.498,839.215L858.3,800.83L889.703,778.156L941.61,778.156L962.978,798.65L962.978,824.378L980.418,845.314L974.752,850.557L970.392,878.033L972.131,891.554L942.907,900.724L924.593,927.759L967.347,1001.47L993.507,969.622L979.121,946.506L981.301,922.526L993.508,909.436L1019.68,915.544L1042.35,936.047L992.202,1059.04L1027.96,1067.76L1051.08,1095.69L1055.88,1131.88L1058.06,1184.66L1067.21,1237.87L1079.44,1253.58L1111.28,1266.66L1143.99,1274.94L1155.77,1289.77L1148.79,1300.68L1063.3,1315.07L1102.55,1328.16L1152.28,1346.47L1171.04,1367.85L1162.31,1380.07L1131.77,1384.86L1012.26,1378.32L997.868,1363.49L1008.34,1330.34L973.878,1238.74L957.303,1176.38L870.073,1184.66L792.439,1189.46L758.414,1179.42L737.92,1152.38L756.234,1071.26L777.17,1001.02L824.707,918.598L870.948,889.374Z" style="fill:rgb(17,20,22);"/>
        </g>
    </g>
</svg>
