<?xml version="1.0" encoding="UTF-8" standalone="no"?>
<!DOCTYPE svg PUBLIC "-//W3C//DTD SVG 1.1//EN" "http://www.w3.org/Graphics/SVG/1.1/DTD/svg11.dtd">
<svg width="100%" height="100%" viewBox="0 0 2444 1554" version="1.1" xmlns="http://www.w3.org/2000/svg" xmlns:xlink="http://www.w3.org/1999/xlink" xml:space="preserve" xmlns:serif="http://www.serif.com/" style="fill-rule:evenodd;clip-rule:evenodd;stroke-linejoin:round;stroke-miterlimit:2;">
    <g>
        <g transform="matrix(-0.99999,0.00450426,-0.00450426,-0.99999,2447.48,1547.73)">
            <rect x="0" y="964.246" width="2444" height="589" style="fill:rgb(91,89,86);"/>
        </g>
        <g transform="matrix(-0.99999,0.00450426,-0.00450426,-0.99999,2447.48,1547.73)">
            <rect x="0" y="0" width="2444" height="463" style="fill:rgb(218,105,21);"/>
        </g>
        <g transform="matrix(-0.99999,0.00450426,-0.00450426,-0.99999,2447.48,1547.73)">
            <rect x="0" y="463" width="2444" height="79" style="fill:rgb(240,131,35);"/>
        </g>
        <g transform="matrix(-0.99999,0.00450426,-0.00450426,-0.99999,2447.48,1547.73)">
            <rect x="0" y="542" width="2444" height="80" style="fill:rgb(245,159,73);"/>
        </g>
        <g transform="matrix(-0.99999,0.00450426,-0.00450426,-0.99999,2447.48,1547.73)">
            <rect x="0" y="622" width="2444" height="79" style="fill:rgb(244,183,73);"/>
        </g>
        <g transform="matrix(-0.99999,0.00450426,-0.00450426,-0.99999,2447.48,1547.73)">
            <path d="M0,993.854L818.019,1070.41L1512.53,1103.02L2197.33,1176.43L2444,1193.6L2444,868.435L0,868.435L0,993.854Z" style="fill:rgb(113,103,172);"/>
        </g>
        <g transform="matrix(-0.99999,0.00450426,-0.00450426,-0.99999,2447.48,1547.73)">
            <path d="M1341.38,550.08C1341.38,618.97 1285.53,674.817 1216.64,674.817C1147.75,674.817 1091.91,618.971 1091.91,550.081C1091.91,481.191 1147.75,425.345 1216.64,425.345C1285.53,425.345 1341.38,481.191 1341.38,550.081" style="fill:rgb(234,81,88);"/>
        </g>
        <g transform="matrix(-0.99999,0.00450426,-0.00450426,-0.99999,2447.48,1547.73)">
            <path d="M0,475.404L129.532,483.144L237.334,492.436L393.753,498.113L495.207,509.403L533.257,517.726L640,522.372L603.01,535.791L493.095,539.92L330.34,539.92L178.68,534.758L74.576,539.92L-0.001,539.92L0,475.404ZM861.099,574.037L780.693,579.791L693.083,579.791L612.216,572.271L591.999,560.26L612.216,555.275L716.001,557.89L777.963,556.225L835.897,555.275L870.999,561.24L861.099,574.037Z" style="fill:white;"/>
        </g>
        <g transform="matrix(-0.99999,0.00450426,-0.00450426,-0.99999,2447.48,1547.73)">
            <path d="M482.532,683.961L587.498,648.515L748.911,648.515L963.327,581.664L1001.87,612.766L1076.56,588.206L1127.15,632.813L1172.92,612.766L1225.92,624.653L1285.49,581.663L1384.53,632.813L1633.07,668.111L1717.47,683.961L1717.47,731.664L482.532,731.664L482.532,683.961Z" style="fill:rgb(0,93,156);"/>
        </g>
        <g transform="matrix(-0.99999,0.00450426,-0.00450426,-0.99999,2447.48,1547.73)">
            <path d="M960.533,582.266L1074.87,544.664L1210.08,544.664L1286.62,582.266L1330.06,604.106L1265.89,602.678L1226.33,624.624L1172.68,612.914L1126.35,632.664L1075.14,588.711L999.55,612.913L960.533,582.266Z" style="fill:rgb(202,233,249);"/>
        </g>
        <g transform="matrix(-0.99999,0.00450426,-0.00450426,-0.99999,2447.48,1547.73)">
            <path d="M2163.19,489.516L2036.52,496.338L1922.88,510.438L1831.61,508.163L1779.45,510.437L1772,524.081L1824.16,539.544L1975.05,539.544L2112.89,533.434L2233.97,539.544L2336.43,533.434L2357,519.404L2336.43,505.434L2250.26,493.61L2163.19,489.516Z" style="fill:white;"/>
        </g>
        <g transform="matrix(-0.99999,0.00450426,-0.00450426,-0.99999,2447.48,1547.73)">
            <path d="M2354.01,676.426L2354.01,667.492L2292.54,667.492L2292.54,690.755L2269.6,690.755L2269.6,678.525L2208.13,678.525L2208.13,675.235L2118.37,675.235L2118.37,690.755L2077.6,690.755L2077.6,668.706L1940.19,668.706L1940.19,679.384L1853,679.384L1853,672.851L1765.8,672.851L1765.8,690.755L1659.37,690.755L1659.37,685.14L1600.15,685.14L1600.15,672.851L1508.57,672.851L1508.57,665.565L1320.38,665.565L1320.38,690.755L1297.83,690.755L1297.83,671.321L1219.38,671.321L1219.38,676.426L1134.64,676.426L1134.64,667.492L1073.17,667.492L1073.17,690.755L1050.22,690.755L1050.22,678.525L988.758,678.525L988.758,675.235L899,675.235L899,690.755L858.226,690.755L858.226,668.706L720.821,668.706L720.821,679.384L633.621,679.384L633.621,672.851L546.421,672.851L546.421,690.755L439.994,690.755L439.994,685.14L380.774,685.14L380.774,672.851L289.194,672.851L289.194,665.565L101.01,665.565L101.01,690.755L78.45,690.755L78.45,671.321L-0.002,671.321L-0.002,799.75L2444,799.75L2444,676.426L2354.01,676.426Z" style="fill:rgb(19,55,89);"/>
        </g>
        <g transform="matrix(-0.99999,0.00450426,-0.00450426,-0.99999,2447.48,1547.73)">
            <rect x="269" y="609.597" width="191" height="162.838" style="fill:rgb(69,148,209);"/>
        </g>
        <g transform="matrix(-0.99999,0.00450426,-0.00450426,-0.99999,2447.48,1547.73)">
            <rect x="460" y="609.597" width="92" height="162.838" style="fill:rgb(4,71,127);"/>
        </g>
        <g transform="matrix(-0.99999,0.00450426,-0.00450426,-0.99999,2447.48,1547.73)">
            <rect x="552" y="640.048" width="148" height="132.387" style="fill:rgb(69,148,209);"/>
        </g>
        <g transform="matrix(-0.99999,0.00450426,-0.00450426,-0.99999,2447.48,1547.73)">
            <rect x="700" y="640.048" width="76" height="132.387" style="fill:rgb(4,71,127);"/>
        </g>
        <g transform="matrix(-0.99999,0.00450426,-0.00450426,-0.99999,2447.48,1547.73)">
            <rect x="1275" y="655.623" width="167" height="132.387" style="fill:rgb(69,148,209);"/>
        </g>
        <g transform="matrix(-0.99999,0.00450426,-0.00450426,-0.99999,2447.48,1547.73)">
            <rect x="1442" y="655.623" width="79" height="132.387" style="fill:rgb(4,71,127);"/>
        </g>
        <g transform="matrix(-0.99999,0.00450426,-0.00450426,-0.99999,2447.48,1547.73)">
            <rect x="1909" y="655.623" width="91" height="132.387" style="fill:rgb(69,148,209);"/>
        </g>
        <g transform="matrix(-0.99999,0.00450426,-0.00450426,-0.99999,2447.48,1547.73)">
            <rect x="2000" y="655.623" width="41" height="132.387" style="fill:rgb(4,71,127);"/>
        </g>
        <g transform="matrix(-0.99999,0.00450426,-0.00450426,-0.99999,2447.48,1547.73)">
            <rect x="1645" y="665.565" width="87" height="132.387" style="fill:rgb(69,148,209);"/>
        </g>
        <g transform="matrix(-0.99999,0.00450426,-0.00450426,-0.99999,2447.48,1547.73)">
            <rect x="1732" y="665.565" width="44" height="132.387" style="fill:rgb(4,71,127);"/>
        </g>
        <g transform="matrix(-0.99999,0.00450426,-0.00450426,-0.99999,2447.48,1547.73)">
            <path d="M2169,760.51L2169,694.575C2169,694.575 2179.85,622.487 2298.22,617.211C2416.6,611.937 2393.1,760.511 2393.1,760.511L2169,760.511L2169,760.51Z" style="fill:rgb(69,148,209);"/>
        </g>
        <g transform="matrix(-0.99999,0.00450426,-0.00450426,-0.99999,2447.48,1547.73)">
            <path d="M2194,760.51L2194,710.4C2194,710.4 2201.06,655.611 2278.05,651.602C2355.05,647.593 2339.76,760.51 2339.76,760.51L2194,760.51Z" style="fill:rgb(4,71,127);"/>
        </g>
        <g transform="matrix(-0.99999,0.00450426,-0.00450426,-0.99999,2447.48,1547.73)">
            <path d="M2287.44,732.028L2287.44,770.897L2242.41,770.897L2242.41,720.515L1866.86,720.515L1866.86,735.089L1684.09,735.089L1684.09,759.668L1565.9,759.668L1565.9,770.897L1353.5,770.897L1353.5,735.089L1179.48,735.089L1179.48,748.154L1005.45,748.154L1005.45,726.8L731.224,726.8L731.224,770.897L649.86,770.897L649.86,739.855L470.73,739.855L470.73,746.435L348.056,746.435L348.056,770.897L302.266,770.897L302.266,724.37L179.593,724.37L179.593,742.237L-0.001,742.237L-0.001,828.885L2444,828.885L2444,732.027L2287.44,732.028Z" style="fill:rgb(17,35,55);"/>
        </g>
        <g transform="matrix(-0.99999,0.00450426,-0.00450426,-0.99999,2447.48,1547.73)">
            <path d="M0,797.92L1083.57,821.92L1433.59,821.92L1719.14,809.92L2040.18,809.92L2281.75,821.92L2444,821.92L2444,878.435L0,878.435L0,797.92Z" style="fill:rgb(19,55,89);"/>
        </g>
        <g transform="matrix(-0.99999,0.00450426,-0.00450426,-0.99999,2447.48,1547.73)">
            <path d="M670.264,948.047L1227,948.047L879.768,957.295L1099.48,969.13L618.797,969.13L767.087,963.84L497.998,960.68L832.06,952.742L670.264,948.047Z" style="fill:rgb(244,183,73);"/>
        </g>
        <g transform="matrix(-0.99999,0.00450426,-0.00450426,-0.99999,2447.48,1547.73)">
            <path d="M1103.8,916.13L1352,916.13L1197.2,923.587L1295.15,933.13L1080.85,933.13L1146.96,928.865L1027,926.316L1175.93,919.916L1103.8,916.13Z" style="fill:rgb(255,142,147);"/>
        </g>
        <g transform="matrix(-0.99999,0.00450426,-0.00450426,-0.99999,2447.48,1547.73)">
            <path d="M1445,896.663L1219,896.663L1374.65,900.796L1445,896.663ZM1881,967.227L1880.09,966.992L1745.75,953.262L1881,947.597L1881.23,947.888L1732.86,946.981L1532.05,944.852L1588.4,949.244L1406,950.067L1578.63,958.265L1425.42,967.227L1881,967.227ZM1834.15,998.458L1662.74,998.458L1741.94,1004.28L1551,1010.11L1845,1010.11L1793.2,1004.28L1834.15,998.458Z" style="fill:rgb(244,183,73);"/>
        </g>
        <g transform="matrix(-0.99999,0.00450426,-0.00450426,-0.99999,2447.48,1547.73)">
            <path d="M452.186,869.353L462.923,869.353L462.923,853.274L452.186,853.274L452.186,869.353ZM456.894,831.379L465.014,831.379L465.014,819.22L456.894,819.22L456.894,831.379ZM461.494,792.113L467.056,792.113L467.056,783.785L461.494,783.785L461.494,792.113ZM468.711,792.113L474.284,792.113L474.284,783.785L468.711,783.785L468.711,792.113ZM467.435,831.379L475.565,831.379L475.565,819.22L467.435,819.22L467.435,831.379ZM466.125,869.353L476.872,869.353L476.872,853.274L466.124,853.274L466.124,869.353L466.125,869.353ZM475.941,792.113L481.502,792.113L481.502,783.785L475.941,783.785L475.941,792.113ZM477.982,831.379L486.102,831.379L486.102,819.22L477.982,819.22L477.982,831.379ZM480.074,869.353L490.812,869.353L490.812,853.274L480.074,853.274L480.074,869.353ZM495.859,858.9L504.803,892.748L441.805,880.678L447.139,858.9C427.905,858.9 416.999,848.183 416.999,848.183C429.867,848.183 440.497,841.636 448.854,833.232L452.116,820.883C436.808,820.883 428.132,812.348 428.132,812.348C440.446,812.348 450.192,804.819 457.301,796.241L456.915,780.668C445.405,780.668 438.88,774.255 438.88,774.255C460.365,774.255 471.498,743.748 471.498,743.748C471.498,743.748 482.633,774.255 504.118,774.255C504.118,774.255 497.594,780.668 486.083,780.668L485.696,796.241C492.805,804.819 502.551,812.348 514.864,812.348C514.864,812.348 506.19,820.883 490.892,820.883L494.144,833.232C502.501,841.636 513.13,848.182 525.999,848.182C525.999,848.182 515.092,858.9 495.859,858.9ZM1609.38,904.535L1622.39,904.535L1622.39,889.968L1609.38,889.968L1609.38,904.535ZM1606.85,870.128L1616.68,870.128L1616.68,859.112L1606.85,859.112L1606.85,870.128ZM1604.38,834.553L1611.11,834.553L1611.11,827.007L1604.38,827.007L1604.38,834.553ZM1595.63,834.553L1602.37,834.553L1602.37,827.007L1595.63,827.007L1595.63,834.553ZM1594.08,870.128L1603.92,870.128L1603.92,859.112L1594.08,859.112L1594.08,870.128ZM1592.49,904.535L1605.51,904.535L1605.51,889.968L1592.49,889.968L1592.49,904.535ZM1586.88,834.553L1593.62,834.553L1593.62,827.007L1586.88,827.007L1586.88,834.553ZM1581.31,870.128L1591.15,870.128L1591.15,859.112L1581.31,859.112L1581.31,870.128ZM1575.61,904.535L1588.61,904.535L1588.61,889.968L1575.61,889.968L1575.61,904.535ZM1533,885.355C1533,885.355 1546.21,895.067 1569.5,895.067L1558.67,925.732L1634.96,914.796L1628.5,895.066C1651.79,895.066 1665,885.355 1665,885.355C1649.42,885.355 1636.55,879.422 1626.42,871.811L1622.47,860.621C1641.01,860.621 1651.52,852.887 1651.52,852.887C1636.61,852.887 1624.8,846.066 1616.19,838.293L1616.66,824.183C1630.6,824.183 1638.5,818.373 1638.5,818.373C1612.48,818.373 1599,790.732 1599,790.732C1599,790.732 1585.52,818.372 1559.5,818.372C1559.5,818.372 1567.4,824.182 1581.34,824.182L1581.81,838.292C1573.2,846.066 1561.4,852.887 1546.48,852.887C1546.48,852.887 1556.99,860.62 1575.52,860.62L1571.58,871.81C1561.45,879.422 1548.59,885.355 1533,885.355Z"/>
        </g>
        <g transform="matrix(-0.99999,0.00450426,-0.00450426,-0.99999,2447.48,1547.73)">
            <path d="M2444,930.064L1443,930.064L2111.98,870.624L2444,829.758L2444,930.064ZM0,908.076L710,908.076L473.374,881.728L407.805,863.701L0,849.14L0,908.076Z" style="fill:rgb(17,35,55);"/>
        </g>
        <g transform="matrix(-0.99999,0.00450426,-0.00450426,-0.99999,2447.48,1547.73)">
            <path d="M1243.64,996.57L1263.08,1005.72L1279.88,1292.68L1360.69,1292.16L1395.16,1010.86L1404.88,1008.58L1410.03,925.098L1398.02,862.777L1374.58,831.327L1344.85,818.178L1352.85,789.588L1335.13,761L1307.11,764.43L1293.96,797.021L1293.96,831.327L1261.94,838.761L1236.78,918.238L1253.94,941.108L1243.64,996.57Z"/>
        </g>
        <g transform="matrix(-0.99999,0.00450426,-0.00450426,-0.99999,2447.48,1547.73)">
            <path d="M515,1059.75L556.678,1101.54L693.634,1100.89L817.139,1093.51L993.734,1090.89L1043.83,1043.21L944.866,1029.27L793.733,1033.69L640.791,1042.54L515,1059.75Z" style="fill:rgb(17,35,55);"/>
        </g>
        <g transform="matrix(-0.99999,0.00450426,-0.00450426,-0.99999,2447.48,1547.73)">
            <path d="M661.876,1089.82L635.051,1086.63L612.004,1075.24L644.332,1061.72L662.899,1076.19L669.768,1086.78L779.564,1144.78L798.103,1148.72L827.916,1162.11L795.788,1174.47L776.29,1159.28L772.272,1148.94L661.876,1089.82Z" style="fill:rgb(17,35,55);"/>
        </g>
        <g transform="matrix(-0.99999,0.00450426,-0.00450426,-0.99999,2447.48,1547.73)">
            <path d="M800.369,1116.88L828.535,1116.97L856.079,1125.53L828.834,1142.4L804.597,1130.34L793.613,1120.74L660.981,1076.36L640.843,1074.59L605.745,1064.85L633.237,1049.13L658.677,1061.8L666.704,1071.47L800.369,1116.88Z" style="fill:rgb(17,35,55);"/>
        </g>
    </g>
</svg>
