<?xml version="1.0" encoding="UTF-8" standalone="no"?>
<!DOCTYPE svg PUBLIC "-//W3C//DTD SVG 1.1//EN" "http://www.w3.org/Graphics/SVG/1.1/DTD/svg11.dtd">
<svg width="100%" height="100%" viewBox="0 0 2453 1970" version="1.1" xmlns="http://www.w3.org/2000/svg" xmlns:xlink="http://www.w3.org/1999/xlink" xml:space="preserve" xmlns:serif="http://www.serif.com/" style="fill-rule:evenodd;clip-rule:evenodd;stroke-linejoin:round;stroke-miterlimit:2;">
    <g>
        <g transform="matrix(-0.999985,0.00548484,-0.00548484,-0.999985,2457.88,1963.09)">
            <path d="M201.755,569.812L270.831,569.812L270.831,538.892L201.755,538.892L201.755,569.812ZM334.635,507.972L403.713,507.972L403.713,477.033L334.636,477.033L334.636,507.972L334.635,507.972ZM334.635,631.673L403.713,631.673L403.713,600.753L334.636,600.753L334.636,631.673L334.635,631.673ZM472.831,724.453L472.831,694.95L403.713,694.95L403.713,724.451L377.803,724.451L385.713,755.391L403.713,755.391L403.713,724.451L472.831,724.451L472.831,724.453ZM541.907,507.972L610.984,507.972L610.984,477.033L541.907,477.033L541.907,507.972ZM610.984,600.753L610.984,569.813L541.907,569.813L541.907,538.893L472.831,538.893L472.831,569.813L541.907,569.813L541.907,600.753L610.984,600.753ZM610.984,662.612L680.102,662.612L680.102,631.673L610.984,631.673L610.984,662.612ZM817.762,600.753L817.762,569.812L748.644,569.812L748.644,600.753L817.762,600.753ZM817.762,662.612L817.762,631.673L748.644,631.673L748.644,662.612L817.762,662.612ZM817.762,724.452L817.762,693.53L748.644,693.53L748.644,724.452L817.762,724.452ZM955.956,631.673L955.956,600.753L886.838,600.753L886.838,631.673L955.956,631.673ZM1093.62,820.107L1093.62,800.997L886.88,779.604L886.88,755.668L817.762,755.668L817.762,755.392L748.644,755.392L748.644,786.312L749.179,786.312L749.179,817.252L680.102,817.252L680.102,786.312L610.984,786.312L610.984,755.392L680.102,755.392L680.102,743.985L642.083,724.453L610.984,724.453L610.984,755.393L541.907,755.393L541.907,786.313L610.984,786.313L610.984,817.251L472.831,817.251L472.831,786.312L393.58,786.312L395.227,792.761L469.907,818.928L553.317,848.171L610.984,848.171L610.984,865.18L680.102,873.786L680.102,848.17L749.179,848.17L749.179,879.09L722.735,879.09L817.762,890.939L817.762,850.087L955.42,850.087L955.42,820.107L1093.62,820.107ZM1093.62,600.751L1162.69,600.751L1162.69,569.812L1093.62,569.812L1093.62,600.752L1093.62,600.751ZM1231.77,709.011L1231.77,678.072L1162.69,678.072L1162.69,709.011L1024.5,709.011L1024.5,770.87L1093.62,770.87L1093.62,739.93L1162.69,739.93L1162.69,709.01L1231.77,709.01L1231.77,709.011ZM1231.77,804.645L1231.77,773.708L1162.69,773.708L1162.69,804.645L1231.77,804.645ZM1263.69,538.892L1332.77,538.892L1332.77,507.972L1263.69,507.972L1263.69,538.892ZM2452.25,694.952L2452.25,1552.25L2345.94,1552.25L2249.84,1528.27L1588.48,1363.11L1517.71,1342.57L1304.06,1288.8L1144.61,1240.98L1099.96,1196.02L1157.38,1154.61L1399.75,1111.79L1648.45,1077.03L1822.32,1046.81L1985.43,1008.56L2094.92,960.464L2094.92,929.452L2021.6,893.392L1836.61,869.122L1577.24,845.85L1577.24,851.045L1508.16,851.045L1508.16,839.656L1290.22,820.106L1231.77,820.106L1231.77,851.046L1300.89,851.046L1300.89,881.966L1162.69,881.966L1162.69,851.046L1024.5,851.046L1024.5,881.026L886.838,881.026L886.838,899.526L940.51,906.216L1093.62,917.954L1093.62,881.966L1162.69,881.966L1162.69,923.243L1231.77,928.53L1231.77,912.904L1300.89,912.904L1300.89,933.819L1388.05,940.507L1288.12,955.709L773.111,976.901L395.227,1015.43L0.25,1091.09L0.25,453.245L748.644,453.245L748.644,477.033L817.762,477.033L817.762,507.972L748.644,507.972L748.644,538.892L817.762,538.892L817.762,507.972L886.838,507.972L886.838,538.892L955.956,538.892L955.956,507.972L886.838,507.972L886.838,477.033L817.762,477.033L817.762,453.245L2452.25,453.245L2452.25,694.952Z" style="fill:rgb(69,62,96);"/>
        </g>
        <g transform="matrix(-0.999985,0.00548484,-0.00548484,-0.999985,2457.88,1963.09)">
            <path d="M541.907,414.954L610.984,414.954L610.984,383.854L541.907,383.854L541.907,414.954ZM2452.25,362.245L2452.25,453.245L817.76,453.245L817.76,446.072L748.643,446.072L748.643,453.245L0.25,453.245L0.25,362.245L403.713,362.245L403.713,383.855L334.636,383.855L334.636,414.954L403.713,414.954L403.713,383.854L472.831,383.854L472.831,362.245L2452.25,362.245Z" style="fill:rgb(255,239,148);"/>
        </g>
        <g transform="matrix(-0.999985,0.00548484,-0.00548484,-0.999985,2457.88,1963.09)">
            <path d="M541.907,352.839L610.984,352.839L610.984,322.057L541.907,322.057L541.907,352.839ZM748.644,352.839L817.762,352.839L817.762,322.057L748.644,322.057L748.644,352.839ZM2452.25,272.245L2452.25,362.245L472.83,362.245L472.83,352.839L403.713,352.839L403.713,362.245L0.25,362.245L0.25,272.245L2452.25,272.245Z" style="fill:rgb(255,208,146);"/>
        </g>
        <g transform="matrix(-0.999985,0.00548484,-0.00548484,-0.999985,2457.88,1963.09)">
            <path d="M886.838,250.82L955.956,250.82L955.956,219.72L886.838,219.72L886.838,250.82ZM0.25,272.244L2452.25,272.244L2452.25,181.244L0.25,181.244L0.25,272.244Z" style="fill:rgb(254,176,138);"/>
        </g>
        <g transform="matrix(-0.999985,0.00548484,-0.00548484,-0.999985,2457.88,1963.09)">
            <path d="M680.102,140.709L680.102,109.929L610.984,109.929L610.984,140.709L541.907,140.709L541.907,171.472L610.984,171.472L610.984,140.71L680.102,140.71L680.102,140.709ZM0.25,181.245L2452.25,181.245L2452.25,91.245L0.25,91.245L0.25,181.245Z" style="fill:rgb(221,146,175);"/>
        </g>
        <g transform="matrix(-0.999985,0.00548484,-0.00548484,-0.999985,2457.88,1963.09)">
            <rect x="0.25" y="0.245" width="2452" height="91" style="fill:rgb(188,125,145);"/>
        </g>
        <g transform="matrix(-0.999985,0.00548484,-0.00548484,-0.999985,2457.88,1963.09)">
            <path d="M1638.99,454.654C1596.32,381.33 1516.95,332 1426,332C1335.04,332 1255.67,381.33 1213,454.654L1638.99,454.654Z" style="fill:rgb(244,183,73);"/>
        </g>
        <g transform="matrix(-0.999985,0.00548484,-0.00548484,-0.999985,2457.88,1963.09)">
            <path d="M758.878,1295.99L650.408,1218.91L650.408,1180.39L577.078,1180.39L577.078,1231.77L679.122,1310.25L758.878,1295.99ZM1033.16,1077.12L1010.83,1060.5L806.707,1091.18L841.764,1107.6L1033.16,1077.12ZM1250.02,1037.66L1371.22,1015.75L1348.89,1006.5L1211.75,1025L1250.02,1037.66L1250.02,1037.66ZM1439.27,913.025L1439.27,851.178L1370.15,851.178L1370.15,913.025L1439.27,913.025ZM1508.36,913.025L1577.45,913.025L1577.45,882.092L1508.36,882.092L1508.36,913.025ZM1519.52,990.551L1591.29,977.36L1565.79,972.016L1513.14,982.703L1501.98,985.559L1519.53,990.551L1519.52,990.551ZM1652.67,906.337L1662.23,902.43L1591.29,896.002L1591.29,901.179L1652.67,906.337ZM1733.99,936.146L1733.99,924.91L1718.05,924.91L1714.09,935.963L1687.77,947.385L1710.88,947.385L1733.99,936.145L1733.99,936.146ZM2346.25,1552.25L1301.06,1552.25L1112.88,1461.29L975.734,1470.11L1125.65,1552.25L427.166,1552.25L347.41,1481.65L165.652,1390.19L0.25,1295.99L0.25,1091.18L395.28,1015.53L773.214,977.01L1288.29,955.822L1388.23,940.622L1301.06,933.936L1301.06,913.026L1231.93,913.026L1231.93,928.648L1162.85,923.362L1162.85,882.092L1301.06,882.092L1301.06,851.178L1231.93,851.178L1231.93,820.245L1290.39,820.245L1508.36,839.791L1508.36,851.178L1577.45,851.178L1577.45,845.984L1836.86,869.25L2021.87,893.514L2095.2,929.569L2095.2,960.576L1985.7,1008.66L1822.56,1046.91L1648.67,1077.12L1399.93,1111.87L1157.53,1154.69L1100.11,1196.08L1144.76,1241.04L1304.23,1288.84L1517.92,1342.6L1588.69,1363.15L2250.14,1528.28L2346.25,1552.25L2346.25,1552.25Z" style="fill:rgb(104,99,132);"/>
        </g>
        <g transform="matrix(-0.999985,0.00548484,-0.00548484,-0.999985,2457.88,1963.09)">
            <path d="M1734.25,924.245L1734.25,935.745L1710.75,947.245L1687.25,947.245L1714.02,935.556L1718.04,924.245L1734.25,924.245ZM1662.25,902.087L1652.68,906.245L1591.25,900.754L1591.25,895.245L1662.25,902.087ZM1591.25,976.723L1519.74,990.245L1502.25,985.126L1513.38,982.198L1565.84,971.245L1591.25,976.723Z" style="fill:rgb(120,117,155);"/>
        </g>
        <g transform="matrix(-0.999985,0.00548484,-0.00548484,-0.999985,2457.88,1963.09)">
            <path d="M1508.25,912.245L1577.25,912.245L1577.25,881.245L1508.25,881.245L1508.25,912.245ZM1439.25,881.736L1439.25,912.245L1370.25,912.245L1370.25,851.245L1439.25,851.245L1439.25,881.736Z" style="fill:rgb(69,62,96);"/>
        </g>
        <g transform="matrix(-0.999985,0.00548484,-0.00548484,-0.999985,2457.88,1963.09)">
            <path d="M1371.25,1015.45L1249.65,1037.25L1211.25,1024.65L1348.85,1006.25L1371.25,1015.45Z" style="fill:rgb(120,117,155);"/>
        </g>
        <g transform="matrix(-0.999985,0.00548484,-0.00548484,-0.999985,2457.88,1963.09)">
            <rect x="1263.25" y="507.245" width="70" height="31" style="fill:rgb(104,99,132);"/>
        </g>
        <g transform="matrix(-0.999985,0.00548484,-0.00548484,-0.999985,2457.88,1963.09)">
            <path d="M1112.68,1461.25L1301.25,1552.25L1125.47,1552.25L975.25,1470.07L1112.68,1461.25Z" style="fill:rgb(120,117,155);"/>
        </g>
        <g transform="matrix(-0.999985,0.00548484,-0.00548484,-0.999985,2457.88,1963.09)">
            <path d="M1232.25,788.737L1232.25,804.245L1162.25,804.245L1162.25,773.245L1232.25,773.245L1232.25,788.737ZM1232.25,694.158L1232.25,708.245L1162.25,708.245L1162.25,677.245L1232.25,677.245L1232.25,694.158ZM1162.25,851.245L1162.25,881.745L1093.39,881.745L1093.39,917.245L940.755,905.667L887.25,899.068L887.25,880.818L1024.48,880.818L1024.48,851.245L1162.25,851.245ZM1162.25,708.245L1162.25,739.235L1093.27,739.235L1093.27,770.245L1024.25,770.245L1024.25,708.245L1162.25,708.245ZM1093.25,600.245L1162.25,600.245L1162.25,569.245L1093.25,569.245L1093.25,600.245ZM1093.25,800.795L1093.25,820.045L955.483,820.045L955.483,850.245L818.249,850.245L818.249,817.166L887.113,817.166L887.113,786.28L887.153,786.28L887.153,779.246L1093.25,800.795Z" style="fill:rgb(104,99,132);"/>
        </g>
        <g transform="matrix(-0.999985,0.00548484,-0.00548484,-0.999985,2457.88,1963.09)">
            <path d="M1010.87,1060.25L1033.25,1076.83L841.392,1107.25L806.25,1090.86L1010.87,1060.25Z" style="fill:rgb(120,117,155);"/>
        </g>
        <g transform="matrix(-0.999985,0.00548484,-0.00548484,-0.999985,2457.88,1963.09)">
            <path d="M956.25,626.81L956.25,631.245L887.25,631.245L887.25,600.245L956.25,600.245L956.25,626.81ZM887.25,538.245L956.25,538.245L956.25,507.245L887.25,507.245L887.25,538.245ZM887.25,250.245L956.25,250.245L956.25,219.245L887.25,219.245L887.25,250.245ZM887.25,779.47L887.25,786.245L887.208,786.245L887.208,785.979L818.25,785.979L818.25,771.245L857.826,776.538L887.25,779.47Z" style="fill:rgb(104,99,132);"/>
        </g>
        <g transform="matrix(-0.999985,0.00548484,-0.00548484,-0.999985,2457.88,1963.09)">
            <path d="M887.25,756.668L887.25,779.244L858.054,776.214L818.784,770.745L818.784,785.968L887.209,785.968L887.209,786.245L818.25,786.245L818.25,755.245L887.25,755.245L887.25,756.668Z" style="fill:rgb(104,99,132);"/>
        </g>
        <g transform="matrix(-0.999985,0.00548484,-0.00548484,-0.999985,2457.88,1963.09)">
            <path d="M1952.91,562.245L1883.25,651.355L1952.91,666.245L2024.25,650.562L1952.91,562.245ZM1634.91,656.245L1565.25,745.355L1634.91,760.245L1706.25,744.563L1634.91,656.245ZM2255.05,954.245L2113.25,1135.89L2255.05,1166.25L2400.25,1134.28L2255.05,954.245ZM253.134,704.245L118.25,875.608L253.134,904.245L391.25,874.088L253.134,704.245ZM2073.75,620.245L2036.25,673.472L2073.75,680.245L2111.25,672.523L2073.75,620.245ZM1491.25,493.245L1454.25,546.473L1491.25,553.245L1528.25,545.523L1491.25,493.245ZM2005.25,605.743L2053.52,619.245L2105.25,605.743L2055.25,549.245L2005.25,605.743ZM1552.25,508.493L1575.91,515.245L1601.25,508.493L1576.75,480.245L1552.25,508.493ZM397.25,932.992L470.145,953.245L548.25,932.992L472.752,848.245L397.25,932.992Z" style="fill:rgb(188,125,145);"/>
        </g>
        <g transform="matrix(-0.999985,0.00548484,-0.00548484,-0.999985,2457.88,1963.09)">
            <path d="M887.25,786.245L887.25,817.245L818.25,817.245L818.25,786.245L887.25,786.245Z" style="fill:rgb(69,62,96);"/>
        </g>
        <g transform="matrix(-0.999985,0.00548484,-0.00548484,-0.999985,2457.88,1963.09)">
            <path d="M818.25,507.245L887.25,507.245L887.25,476.245L818.25,476.245L818.25,507.245ZM818.25,880.508L818.25,890.245L722.25,878.608L748.965,878.608L748.965,848.245L818.25,848.245L818.25,880.508Z" style="fill:rgb(104,99,132);"/>
        </g>
        <g transform="matrix(-0.999985,0.00548484,-0.00548484,-0.999985,2457.88,1963.09)">
            <path d="M818.25,817.245L818.25,848.245L748.25,848.245L748.25,817.245L818.25,817.245Z" style="fill:rgb(69,62,96);"/>
        </g>
        <g transform="matrix(-0.999985,0.00548484,-0.00548484,-0.999985,2457.88,1963.09)">
            <path d="M818.25,786.512L818.25,817.245L748.792,817.245L748.792,786.237L748.25,786.237L748.25,755.245L818.25,755.245L818.25,786.512ZM818.25,694.67L818.25,724.245L748.25,724.245L748.25,693.245L818.25,693.245L818.25,694.67ZM818.25,643.172L818.25,662.245L748.25,662.245L748.25,631.245L818.25,631.245L818.25,643.172ZM818.25,584.348L818.25,600.245L748.25,600.245L748.25,569.245L818.25,569.245L818.25,584.348ZM748.25,538.245L818.25,538.245L818.25,507.245L748.25,507.245L748.25,538.245ZM748.25,476.245L818.25,476.245L818.25,453.245L748.25,453.245L748.25,476.245ZM748.25,453.245L818.25,453.245L818.25,445.245L748.25,445.245L748.25,453.245ZM748.25,353.245L818.25,353.245L818.25,322.245L748.25,322.245L748.25,353.245Z" style="fill:rgb(104,99,132);"/>
        </g>
        <g transform="matrix(-0.999985,0.00548484,-0.00548484,-0.999985,2457.88,1963.09)">
            <path d="M650.66,1218.81L759.25,1295.97L679.406,1310.25L577.25,1231.68L577.25,1180.25L650.66,1180.25L650.66,1218.81Z" style="fill:rgb(120,117,155);"/>
        </g>
        <g transform="matrix(-0.999985,0.00548484,-0.00548484,-0.999985,2457.88,1963.09)">
            <path d="M680.25,848.245L748.25,848.245L748.25,817.245L680.25,817.245L680.25,848.245ZM680.25,848.245L680.25,873.245L611.25,864.846L611.25,848.245L680.25,848.245Z" style="fill:rgb(104,99,132);"/>
        </g>
        <g transform="matrix(-0.999985,0.00548484,-0.00548484,-0.999985,2457.88,1963.09)">
            <rect x="611.25" y="817.245" width="69" height="31" style="fill:rgb(69,62,96);"/>
        </g>
        <g transform="matrix(-0.999985,0.00548484,-0.00548484,-0.999985,2457.88,1963.09)">
            <path d="M611.25,817.245L680.25,817.245L680.25,786.245L611.25,786.245L611.25,817.245ZM680.25,743.817L680.25,755.245L611.25,755.245L611.25,724.245L642.296,724.245L680.25,743.817ZM611.25,662.245L680.25,662.245L680.25,631.245L611.25,631.245L611.25,662.245ZM611.25,140.245L680.25,140.245L680.25,109.245L611.25,109.245L611.25,140.245ZM611.25,817.245L611.25,848.245L553.615,848.245L470.25,818.926L473.173,817.245L611.25,817.245ZM542.25,786.245L611.25,786.245L611.25,755.245L542.25,755.245L542.25,786.245ZM542.25,600.245L611.25,600.245L611.25,569.245L542.25,569.245L542.25,600.245ZM542.25,507.245L611.25,507.245L611.25,476.245L542.25,476.245L542.25,507.245ZM542.25,414.245L611.25,414.245L611.25,384.245L542.25,384.245L542.25,414.245ZM542.25,353.245L611.25,353.245L611.25,322.245L542.25,322.245L542.25,353.245ZM542.25,171.245L611.25,171.245L611.25,140.245L542.25,140.245L542.25,171.245ZM473.25,569.245L542.25,569.245L542.25,538.245L473.25,538.245L473.25,569.245ZM473.25,786.245L473.25,816.6L470.298,818.245L394.913,792.572L393.25,786.245L473.25,786.245ZM403.25,724.245L473.25,724.245L473.25,694.245L403.25,694.245L403.25,724.245ZM403.25,384.245L473.25,384.245L473.25,362.245L403.25,362.245L403.25,384.245ZM403.25,362.245L473.25,362.245L473.25,353.245L403.25,353.245L403.25,362.245Z" style="fill:rgb(104,99,132);"/>
        </g>
        <g transform="matrix(-0.999985,0.00548484,-0.00548484,-0.999985,2457.88,1963.09)">
            <path d="M347.478,1481.72L427.25,1552.25L0.25,1552.25L0.25,1296.25L165.685,1390.35L347.478,1481.72Z" style="fill:rgb(69,62,96);"/>
        </g>
        <g transform="matrix(-0.999985,0.00548484,-0.00548484,-0.999985,2457.88,1963.09)">
            <path d="M403.25,724.245L403.25,755.245L385.88,755.245L378.25,724.245L403.25,724.245ZM334.25,631.245L403.25,631.245L403.25,600.245L334.25,600.245L334.25,631.245ZM334.25,507.245L403.25,507.245L403.25,476.245L334.25,476.245L334.25,507.245ZM334.25,414.245L403.25,414.245L403.25,384.245L334.25,384.245L334.25,414.245ZM202.25,569.245L271.25,569.245L271.25,538.245L202.25,538.245L202.25,569.245Z" style="fill:rgb(104,99,132);"/>
        </g>
        <g transform="matrix(-0.999985,0.00548484,-0.00548484,-0.999985,2457.88,1963.09)">
            <path d="M1937.98,60.968L2057.57,45.245L2187.89,45.245L2308.18,65.792L2338.25,98.621L2308.18,112.245L2153.81,105.098L2061.64,109.651L1975.47,112.245L1923.25,95.942L1937.98,60.968ZM1753.11,125.245L1625.57,137.79L1511.17,163.718L1419.26,159.534L1366.75,163.718L1359.25,188.809L1411.77,217.245L1563.68,217.245L1702.47,206.007L1824.38,217.245L1927.54,206.007L1948.25,180.207L1927.54,154.517L1840.78,132.772L1753.11,125.245Z" style="fill:rgb(255,233,233);"/>
        </g>
        <g transform="matrix(-0.999985,0.00548484,-0.00548484,-0.999985,2457.88,1963.09)">
            <path d="M1622.77,1220.97L1664.62,1244.04L1700.79,1967.58L1874.77,1966.27L1948.99,1257.01L1969.92,1251.25L1981,1040.76L1955.15,883.62L1904.67,804.324L1840.66,771.169L1857.9,699.079L1819.74,627L1759.41,635.649L1731.1,717.824L1731.1,804.324L1662.16,823.068L1608,1023.46L1644.93,1081.13L1622.77,1220.97Z" style="fill:rgb(188,125,145);"/>
        </g>
        <g transform="matrix(-0.999985,0.00548484,-0.00548484,-0.999985,2457.88,1963.09)">
            <path d="M1629.77,1222.97L1671.62,1246.04L1707.79,1969.58L1881.77,1968.27L1955.99,1259.01L1976.92,1253.25L1988,1042.76L1962.15,885.62L1911.67,806.324L1847.66,773.169L1864.9,701.079L1826.74,629L1766.41,637.649L1738.1,719.824L1738.1,806.324L1669.16,825.068L1615,1025.46L1651.93,1083.13L1629.77,1222.97Z" style="fill:rgb(25,22,36);"/>
        </g>
    </g>
</svg>
