<?xml version="1.0" encoding="UTF-8" standalone="no"?>
<!DOCTYPE svg PUBLIC "-//W3C//DTD SVG 1.1//EN" "http://www.w3.org/Graphics/SVG/1.1/DTD/svg11.dtd">
<svg width="100%" height="100%" viewBox="0 0 2449 1554" version="1.1" xmlns="http://www.w3.org/2000/svg" xmlns:xlink="http://www.w3.org/1999/xlink" xml:space="preserve" xmlns:serif="http://www.serif.com/" style="fill-rule:evenodd;clip-rule:evenodd;stroke-linejoin:round;stroke-miterlimit:2;">
    <g>
        <g transform="matrix(-0.999981,-0.00620384,0.00620384,-0.999981,2437.57,1574.75)">
            <rect x="0" y="930.001" width="2448" height="624" style="fill:rgb(134,208,245);"/>
        </g>
        <g transform="matrix(-0.999981,-0.00620384,0.00620384,-0.999981,2437.57,1574.75)">
            <rect x="0" y="463.001" width="2448" height="467" style="fill:rgb(19,55,89);"/>
        </g>
        <g transform="matrix(-0.999981,-0.00620384,0.00620384,-0.999981,2437.57,1574.75)">
            <rect x="0" y="0.001" width="2448" height="231" style="fill:rgb(0,93,156);"/>
        </g>
        <g transform="matrix(-0.999981,-0.00620384,0.00620384,-0.999981,2437.57,1574.75)">
            <rect x="0" y="231.001" width="2448" height="232" style="fill:rgb(4,71,127);"/>
        </g>
        <g transform="matrix(-0.999981,-0.00620384,0.00620384,-0.999981,2437.57,1574.75)">
            <path d="M1086.98,361.968C1036.18,361.968 995,320.783 995,269.984C995,219.185 1036.18,178 1086.98,178C1137.79,178 1178.97,219.185 1178.97,269.984C1178.97,320.784 1137.79,361.968 1086.98,361.968Z" style="fill:rgb(249,245,205);"/>
        </g>
        <g transform="matrix(-0.999981,-0.00620384,0.00620384,-0.999981,2437.57,1574.75)">
            <path d="M2449,997.001L993,997.001L1508.42,1030.79L1367.79,1062.31L1789.68,1092L2449,1092L2449,997.001ZM0,1325.72L684.32,1297L1088.82,1350.14L1264,1432L719.355,1378.86L576.031,1396.1L0,1396.1L0,1325.72ZM1667.64,1481.22L1989,1463L2164,1481.22L2043.09,1503L1394,1503L1534,1463L1667.64,1481.22ZM2359.68,1169L2448,1163.86L2448,1128L2305.69,1128L2185,1150.32L2359.68,1169ZM101,1007L550,1007L186.978,1044L101,1007Z" style="fill:rgb(100,183,216);"/>
        </g>
        <g transform="matrix(-0.999981,-0.00620384,0.00620384,-0.999981,2437.57,1574.75)">
            <path d="M1265,930.001L1452.71,776.695L1657.28,725.262L1798.7,610.528L1999.17,602.364L2241.02,363.001L2364.06,382.291L2448,444.219L2448,930.002L1265,930.001Z"/>
        </g>
        <g transform="matrix(-0.999981,-0.00620384,0.00620384,-0.999981,2437.57,1574.75)">
            <path d="M0,930.001L1732,930.001L1633.28,875.485L1585.51,831.326L1165.13,797.138L866,696L177.878,852.693L0,865.513L0,930.001Z" style="fill:rgb(17,35,55);"/>
        </g>
        <g transform="matrix(-0.999981,-0.00620384,0.00620384,-0.999981,2437.57,1574.75)">
            <path d="M1607.11,1554L1082,930.001L1164.75,930.001L1799,1347.1L2110.03,1554L1607.11,1554Z" style="fill:rgb(199,239,255);"/>
        </g>
        <g transform="matrix(-0.999981,-0.00620384,0.00620384,-0.999981,2437.57,1574.75)">
            <path d="M1029.2,284.505L1071.47,275.137L1054.03,251.4L1064.6,251.4L1079.93,272.639L1099.48,270.136L1108.2,273.573L1088.12,282.632L1105.56,304.5L1093.93,304.5L1078.35,284.82L1043.2,287.943L1029.2,284.505Z"/>
        </g>
        <g transform="matrix(-0.999981,-0.00620384,0.00620384,-0.999981,2437.57,1574.75)">
            <path d="M1031.13,284.401L0,392.481L0,408.171L1045.19,285.717L1031.13,284.401Z" style="fill:rgb(56,165,214);"/>
        </g>
        <g transform="matrix(-0.999981,-0.00620384,0.00620384,-0.999981,2437.57,1574.75)">
            <path d="M0,399.16L846,306.001L0,403.001L0,399.16Z" style="fill:rgb(25,144,186);"/>
        </g>
        <g transform="matrix(-0.999981,-0.00620384,0.00620384,-0.999981,2437.57,1574.75)">
            <path d="M1459.5,1018.65L1454.65,1001.32L1465.39,984L1482.37,986.077L1490.34,1005.83L1490.34,1026.62L1509.74,1031.12L1524.99,1079.29L1514.6,1093.14L1520.83,1126.75L1509.05,1132.3L1509.74,1146.16L1504.89,1146.16L1498.66,1192.24L1501.43,1213.38L1496.58,1269.16L1503.85,1272.63L1504.55,1276.1L1489.82,1284.07L1476.48,1282.33L1477.52,1244.91L1477.86,1193.63L1473.36,1154.82L1461.92,1184.62L1451.88,1231.05L1447.37,1270.55L1450.49,1281.98L1440.1,1284.06L1420,1279.91L1422.77,1272.98L1430.05,1269.51L1431.78,1227.93L1438.71,1152.05L1433.27,1148.59L1429.01,1135.42L1423.12,1134.03L1420,1083.44L1427.28,1045.68L1441.48,1026.62L1459.5,1018.65Z" style="fill:rgb(17,35,55);"/>
        </g>
    </g>
</svg>
