<?xml version="1.0" encoding="UTF-8" standalone="no"?>
<!DOCTYPE svg PUBLIC "-//W3C//DTD SVG 1.1//EN" "http://www.w3.org/Graphics/SVG/1.1/DTD/svg11.dtd">
<svg width="100%" height="100%" viewBox="0 0 3000 2000" version="1.1" xmlns="http://www.w3.org/2000/svg" xmlns:xlink="http://www.w3.org/1999/xlink" xml:space="preserve" xmlns:serif="http://www.serif.com/" style="fill-rule:evenodd;clip-rule:evenodd;stroke-linejoin:round;stroke-miterlimit:2;">
    <g transform="matrix(-0.999986,0.00533678,-0.00533678,-0.999986,2990.78,1949.51)">
        <rect x="-119.329" y="1320.46" width="3301.6" height="751.128" style="fill:rgb(106,93,155);"/>
    </g>
    <g transform="matrix(-0.999986,0.00533678,-0.00533678,-0.999986,3013.87,2652.17)">
        <rect x="-119.329" y="1320.46" width="3301.6" height="751.128" style="fill:rgb(112,99,160);"/>
    </g>
    <g transform="matrix(-0.999986,0.00533678,-0.00533678,-0.999986,3075.8,3383.64)">
        <rect x="-119.329" y="1320.46" width="3301.6" height="751.128" style="fill:rgb(98,83,152);"/>
    </g>
    <g transform="matrix(-1.11197,0.00593443,-0.00533678,-0.999986,2480.72,2058.62)">
        <g transform="matrix(1,0,0,1,-2.57894,167.634)">
            <rect x="278.993" y="72.651" width="565.359" height="977.124" style="fill:rgb(197,39,39);"/>
            <path d="M707.791,830.423L707.791,862.548L682.358,862.548L682.358,830.423L707.791,830.423ZM646.217,831.761L646.217,862.548L619.446,862.548L619.446,831.761L646.217,831.761ZM361.103,834.438L361.103,862.548L338.348,862.548L338.348,834.438L361.103,834.438ZM766.688,830.423L766.688,861.21L739.917,861.21L739.917,830.423L766.688,830.423ZM527.085,827.745L527.085,858.532L501.652,858.532L501.652,827.745L527.085,827.745ZM473.543,831.761L473.543,858.532L453.464,858.532L453.464,831.761L473.543,831.761ZM584.643,826.407L584.643,858.532L564.565,858.532L564.565,826.407L584.643,826.407ZM415.985,830.423L415.985,857.194L395.906,857.194L395.906,830.423L415.985,830.423ZM704.445,748.436L704.445,780.561L679.012,780.561L679.012,748.436L704.445,748.436ZM642.871,749.774L642.871,780.561L616.099,780.561L616.099,749.774L642.871,749.774ZM357.757,752.451L357.757,780.561L335.001,780.561L335.001,752.451L357.757,752.451ZM763.341,748.436L763.341,779.223L736.57,779.223L736.57,748.436L763.341,748.436ZM523.739,745.759L523.739,776.546L498.306,776.546L498.306,745.759L523.739,745.759ZM470.196,749.774L470.196,776.546L450.118,776.546L450.118,749.774L470.196,749.774ZM581.297,744.42L581.297,776.546L561.218,776.546L561.218,744.42L581.297,744.42ZM412.638,748.436L412.638,775.207L392.56,775.207L392.56,748.436L412.638,748.436ZM641.198,669.46L641.198,700.247L614.426,700.247L614.426,669.46L641.198,669.46ZM702.771,668.122L702.771,700.247L677.339,700.247L677.339,668.122L702.771,668.122ZM356.084,672.138L356.084,700.247L333.328,700.247L333.328,672.138L356.084,672.138ZM761.668,668.122L761.668,698.909L734.897,698.909L734.897,668.122L761.668,668.122ZM468.523,669.46L468.523,696.232L448.445,696.232L448.445,669.46L468.523,669.46ZM579.624,664.106L579.624,696.232L559.545,696.232L559.545,664.106L579.624,664.106ZM522.066,665.445L522.066,696.232L496.633,696.232L496.633,665.445L522.066,665.445ZM410.965,668.122L410.965,694.893L390.887,694.893L390.887,668.122L410.965,668.122ZM699.425,581.115L699.425,613.241L673.992,613.241L673.992,581.115L699.425,581.115ZM637.851,582.454L637.851,613.241L611.08,613.241L611.08,582.454L637.851,582.454ZM352.737,585.131L352.737,613.241L329.982,613.241L329.982,585.131L352.737,585.131ZM758.322,581.115L758.322,611.902L731.551,611.902L731.551,581.115L758.322,581.115ZM518.719,578.438L518.719,609.225L493.286,609.225L493.286,578.438L518.719,578.438ZM465.177,582.454L465.177,609.225L445.098,609.225L445.098,582.454L465.177,582.454ZM576.277,577.1L576.277,609.225L556.199,609.225L556.199,577.1L576.277,577.1ZM407.619,581.115L407.619,607.887L387.54,607.887L387.54,581.115L407.619,581.115ZM707.791,494.109L707.791,526.234L682.358,526.234L682.358,494.109L707.791,494.109ZM361.103,498.125L361.103,526.234L338.348,526.234L338.348,498.125L361.103,498.125ZM646.217,495.447L646.217,526.234L619.446,526.234L619.446,495.447L646.217,495.447ZM766.688,494.109L766.688,524.896L739.916,524.896L739.916,494.109L766.688,494.109ZM473.543,495.447L473.543,522.219L453.464,522.219L453.464,495.447L473.543,495.447ZM527.085,491.432L527.085,522.219L501.652,522.219L501.652,491.432L527.085,491.432ZM584.643,490.093L584.643,522.219L564.565,522.219L564.565,490.093L584.643,490.093ZM415.984,494.109L415.984,520.88L395.906,520.88L395.906,494.109L415.984,494.109ZM692.732,397.063L692.732,429.189L667.299,429.189L667.299,397.063L692.732,397.063ZM346.045,401.079L346.045,429.189L323.289,429.189L323.289,401.079L346.045,401.079ZM631.158,398.402L631.158,429.189L604.387,429.189L604.387,398.402L631.158,398.402ZM751.629,397.063L751.629,427.85L724.858,427.85L724.858,397.063L751.629,397.063ZM569.584,393.048L569.584,425.173L549.506,425.173L549.506,393.048L569.584,393.048ZM512.026,394.386L512.026,425.173L486.594,425.173L486.594,394.386L512.026,394.386ZM458.484,398.402L458.484,425.173L438.405,425.173L438.405,398.402L458.484,398.402ZM400.926,397.063L400.926,423.834L380.847,423.834L380.847,397.063L400.926,397.063ZM696.079,303.364L696.079,335.489L670.646,335.489L670.646,303.364L696.079,303.364ZM349.391,307.38L349.391,335.489L326.635,335.489L326.635,307.38L349.391,307.38ZM634.505,304.702L634.505,335.489L607.733,335.489L607.733,304.702L634.505,304.702ZM754.975,303.364L754.975,334.151L728.204,334.151L728.204,303.364L754.975,303.364ZM461.83,304.702L461.83,331.474L441.752,331.474L441.752,304.702L461.83,304.702ZM515.373,300.687L515.373,331.474L489.94,331.474L489.94,300.687L515.373,300.687ZM572.931,299.348L572.931,331.474L552.852,331.474L552.852,299.348L572.931,299.348ZM404.272,303.364L404.272,330.135L384.194,330.135L384.194,303.364L404.272,303.364ZM692.732,206.318L692.732,238.444L667.299,238.444L667.299,206.318L692.732,206.318ZM346.045,210.334L346.045,238.444L323.289,238.444L323.289,210.334L346.045,210.334ZM631.158,207.657L631.158,238.444L604.387,238.444L604.387,207.657L631.158,207.657ZM751.629,206.318L751.629,237.105L724.858,237.105L724.858,206.318L751.629,206.318ZM569.584,202.302L569.584,234.428L549.506,234.428L549.506,202.302L569.584,202.302ZM458.484,207.657L458.484,234.428L438.405,234.428L438.405,207.657L458.484,207.657ZM512.026,203.641L512.026,234.428L486.594,234.428L486.594,203.641L512.026,203.641ZM400.926,206.318L400.926,233.089L380.847,233.089L380.847,206.318L400.926,206.318ZM689.386,122.658L689.386,154.783L663.953,154.783L663.953,122.658L689.386,122.658ZM342.698,126.674L342.698,154.783L319.943,154.783L319.943,126.674L342.698,126.674ZM627.812,123.997L627.812,154.783L601.041,154.783L601.041,123.997L627.812,123.997ZM748.283,122.658L748.283,153.445L721.511,153.445L721.511,122.658L748.283,122.658ZM455.137,123.997L455.137,150.768L435.059,150.768L435.059,123.997L455.137,123.997ZM508.68,119.981L508.68,150.768L483.247,150.768L483.247,119.981L508.68,119.981ZM566.238,118.642L566.238,150.768L546.16,150.768L546.16,118.642L566.238,118.642ZM397.579,122.658L397.579,149.429L377.501,149.429L377.501,122.658L397.579,122.658Z" style="fill:rgb(255,170,0);"/>
        </g>
        <g transform="matrix(1.09201,0,0,1.02059,-91.6489,-3.16685)">
            <path d="M841.337,233.724L980.904,143.668L996.076,1035.79L854.232,1195.68L841.337,233.724Z" style="fill:rgb(163,37,37);"/>
        </g>
        <path d="M826.044,240.652L280.667,240.571L501.048,151.111L979.179,146.423L826.044,240.652Z" style="fill:rgb(163,37,37);"/>
    </g>
    <g transform="matrix(-1.51512,0.00808598,-0.00533678,-0.999986,1701.44,1879.02)">
        <g transform="matrix(1,0,0,1,-2.57894,167.634)">
            <rect x="278.993" y="72.651" width="565.359" height="977.124" style="fill:rgb(197,39,39);"/>
            <path d="M707.791,830.423L707.791,862.548L682.358,862.548L682.358,830.423L707.791,830.423ZM646.217,831.761L646.217,862.548L619.446,862.548L619.446,831.761L646.217,831.761ZM361.103,834.438L361.103,862.548L338.348,862.548L338.348,834.438L361.103,834.438ZM766.688,830.423L766.688,861.21L739.917,861.21L739.917,830.423L766.688,830.423ZM527.085,827.745L527.085,858.532L501.652,858.532L501.652,827.745L527.085,827.745ZM473.543,831.761L473.543,858.532L453.464,858.532L453.464,831.761L473.543,831.761ZM584.643,826.407L584.643,858.532L564.565,858.532L564.565,826.407L584.643,826.407ZM415.985,830.423L415.985,857.194L395.906,857.194L395.906,830.423L415.985,830.423ZM704.445,748.436L704.445,780.561L679.012,780.561L679.012,748.436L704.445,748.436ZM642.871,749.774L642.871,780.561L616.099,780.561L616.099,749.774L642.871,749.774ZM357.757,752.451L357.757,780.561L335.001,780.561L335.001,752.451L357.757,752.451ZM763.341,748.436L763.341,779.223L736.57,779.223L736.57,748.436L763.341,748.436ZM523.739,745.759L523.739,776.546L498.306,776.546L498.306,745.759L523.739,745.759ZM470.196,749.774L470.196,776.546L450.118,776.546L450.118,749.774L470.196,749.774ZM581.297,744.42L581.297,776.546L561.218,776.546L561.218,744.42L581.297,744.42ZM412.638,748.436L412.638,775.207L392.56,775.207L392.56,748.436L412.638,748.436ZM641.198,669.46L641.198,700.247L614.426,700.247L614.426,669.46L641.198,669.46ZM702.771,668.122L702.771,700.247L677.339,700.247L677.339,668.122L702.771,668.122ZM356.084,672.138L356.084,700.247L333.328,700.247L333.328,672.138L356.084,672.138ZM761.668,668.122L761.668,698.909L734.897,698.909L734.897,668.122L761.668,668.122ZM468.523,669.46L468.523,696.232L448.445,696.232L448.445,669.46L468.523,669.46ZM579.624,664.106L579.624,696.232L559.545,696.232L559.545,664.106L579.624,664.106ZM522.066,665.445L522.066,696.232L496.633,696.232L496.633,665.445L522.066,665.445ZM410.965,668.122L410.965,694.893L390.887,694.893L390.887,668.122L410.965,668.122ZM699.425,581.115L699.425,613.241L673.992,613.241L673.992,581.115L699.425,581.115ZM637.851,582.454L637.851,613.241L611.08,613.241L611.08,582.454L637.851,582.454ZM352.737,585.131L352.737,613.241L329.982,613.241L329.982,585.131L352.737,585.131ZM758.322,581.115L758.322,611.902L731.551,611.902L731.551,581.115L758.322,581.115ZM518.719,578.438L518.719,609.225L493.286,609.225L493.286,578.438L518.719,578.438ZM465.177,582.454L465.177,609.225L445.098,609.225L445.098,582.454L465.177,582.454ZM576.277,577.1L576.277,609.225L556.199,609.225L556.199,577.1L576.277,577.1ZM407.619,581.115L407.619,607.887L387.54,607.887L387.54,581.115L407.619,581.115ZM707.791,494.109L707.791,526.234L682.358,526.234L682.358,494.109L707.791,494.109ZM361.103,498.125L361.103,526.234L338.348,526.234L338.348,498.125L361.103,498.125ZM646.217,495.447L646.217,526.234L619.446,526.234L619.446,495.447L646.217,495.447ZM766.688,494.109L766.688,524.896L739.916,524.896L739.916,494.109L766.688,494.109ZM473.543,495.447L473.543,522.219L453.464,522.219L453.464,495.447L473.543,495.447ZM527.085,491.432L527.085,522.219L501.652,522.219L501.652,491.432L527.085,491.432ZM584.643,490.093L584.643,522.219L564.565,522.219L564.565,490.093L584.643,490.093ZM415.984,494.109L415.984,520.88L395.906,520.88L395.906,494.109L415.984,494.109ZM692.732,397.063L692.732,429.189L667.299,429.189L667.299,397.063L692.732,397.063ZM346.045,401.079L346.045,429.189L323.289,429.189L323.289,401.079L346.045,401.079ZM631.158,398.402L631.158,429.189L604.387,429.189L604.387,398.402L631.158,398.402ZM751.629,397.063L751.629,427.85L724.858,427.85L724.858,397.063L751.629,397.063ZM569.584,393.048L569.584,425.173L549.506,425.173L549.506,393.048L569.584,393.048ZM512.026,394.386L512.026,425.173L486.594,425.173L486.594,394.386L512.026,394.386ZM458.484,398.402L458.484,425.173L438.405,425.173L438.405,398.402L458.484,398.402ZM400.926,397.063L400.926,423.834L380.847,423.834L380.847,397.063L400.926,397.063ZM696.079,303.364L696.079,335.489L670.646,335.489L670.646,303.364L696.079,303.364ZM349.391,307.38L349.391,335.489L326.635,335.489L326.635,307.38L349.391,307.38ZM634.505,304.702L634.505,335.489L607.733,335.489L607.733,304.702L634.505,304.702ZM754.975,303.364L754.975,334.151L728.204,334.151L728.204,303.364L754.975,303.364ZM461.83,304.702L461.83,331.474L441.752,331.474L441.752,304.702L461.83,304.702ZM515.373,300.687L515.373,331.474L489.94,331.474L489.94,300.687L515.373,300.687ZM572.931,299.348L572.931,331.474L552.852,331.474L552.852,299.348L572.931,299.348ZM404.272,303.364L404.272,330.135L384.194,330.135L384.194,303.364L404.272,303.364ZM692.732,206.318L692.732,238.444L667.299,238.444L667.299,206.318L692.732,206.318ZM346.045,210.334L346.045,238.444L323.289,238.444L323.289,210.334L346.045,210.334ZM631.158,207.657L631.158,238.444L604.387,238.444L604.387,207.657L631.158,207.657ZM751.629,206.318L751.629,237.105L724.858,237.105L724.858,206.318L751.629,206.318ZM569.584,202.302L569.584,234.428L549.506,234.428L549.506,202.302L569.584,202.302ZM458.484,207.657L458.484,234.428L438.405,234.428L438.405,207.657L458.484,207.657ZM512.026,203.641L512.026,234.428L486.594,234.428L486.594,203.641L512.026,203.641ZM400.926,206.318L400.926,233.089L380.847,233.089L380.847,206.318L400.926,206.318ZM689.386,122.658L689.386,154.783L663.953,154.783L663.953,122.658L689.386,122.658ZM342.698,126.674L342.698,154.783L319.943,154.783L319.943,126.674L342.698,126.674ZM627.812,123.997L627.812,154.783L601.041,154.783L601.041,123.997L627.812,123.997ZM748.283,122.658L748.283,153.445L721.511,153.445L721.511,122.658L748.283,122.658ZM455.137,123.997L455.137,150.768L435.059,150.768L435.059,123.997L455.137,123.997ZM508.68,119.981L508.68,150.768L483.247,150.768L483.247,119.981L508.68,119.981ZM566.238,118.642L566.238,150.768L546.16,150.768L546.16,118.642L566.238,118.642ZM397.579,122.658L397.579,149.429L377.501,149.429L377.501,122.658L397.579,122.658Z" style="fill:rgb(255,170,0);"/>
        </g>
        <g transform="matrix(1,0,0,1,-2.57894,167.634)">
            <rect x="278.993" y="72.651" width="565.359" height="977.124" style="fill:rgb(197,39,39);"/>
        </g>
        <g transform="matrix(1,0,0,1,-2.57894,167.634)">
            <path d="M707.791,830.423L707.791,862.548L682.358,862.548L682.358,830.423L707.791,830.423ZM646.217,831.761L646.217,862.548L619.446,862.548L619.446,831.761L646.217,831.761ZM361.103,834.438L361.103,862.548L338.348,862.548L338.348,834.438L361.103,834.438ZM766.688,830.423L766.688,861.21L739.917,861.21L739.917,830.423L766.688,830.423ZM527.085,827.745L527.085,858.532L501.652,858.532L501.652,827.745L527.085,827.745ZM473.543,831.761L473.543,858.532L453.464,858.532L453.464,831.761L473.543,831.761ZM584.643,826.407L584.643,858.532L564.565,858.532L564.565,826.407L584.643,826.407ZM415.985,830.423L415.985,857.194L395.906,857.194L395.906,830.423L415.985,830.423ZM704.445,748.436L704.445,780.561L679.012,780.561L679.012,748.436L704.445,748.436ZM642.871,749.774L642.871,780.561L616.099,780.561L616.099,749.774L642.871,749.774ZM357.757,752.451L357.757,780.561L335.001,780.561L335.001,752.451L357.757,752.451ZM763.341,748.436L763.341,779.223L736.57,779.223L736.57,748.436L763.341,748.436ZM523.739,745.759L523.739,776.546L498.306,776.546L498.306,745.759L523.739,745.759ZM470.196,749.774L470.196,776.546L450.118,776.546L450.118,749.774L470.196,749.774ZM581.297,744.42L581.297,776.546L561.218,776.546L561.218,744.42L581.297,744.42ZM412.638,748.436L412.638,775.207L392.56,775.207L392.56,748.436L412.638,748.436ZM641.198,669.46L641.198,700.247L614.426,700.247L614.426,669.46L641.198,669.46ZM702.771,668.122L702.771,700.247L677.339,700.247L677.339,668.122L702.771,668.122ZM356.084,672.138L356.084,700.247L333.328,700.247L333.328,672.138L356.084,672.138ZM761.668,668.122L761.668,698.909L734.897,698.909L734.897,668.122L761.668,668.122ZM468.523,669.46L468.523,696.232L448.445,696.232L448.445,669.46L468.523,669.46ZM579.624,664.106L579.624,696.232L559.545,696.232L559.545,664.106L579.624,664.106ZM522.066,665.445L522.066,696.232L496.633,696.232L496.633,665.445L522.066,665.445ZM410.965,668.122L410.965,694.893L390.887,694.893L390.887,668.122L410.965,668.122ZM699.425,581.115L699.425,613.241L673.992,613.241L673.992,581.115L699.425,581.115ZM637.851,582.454L637.851,613.241L611.08,613.241L611.08,582.454L637.851,582.454ZM352.737,585.131L352.737,613.241L329.982,613.241L329.982,585.131L352.737,585.131ZM758.322,581.115L758.322,611.902L731.551,611.902L731.551,581.115L758.322,581.115ZM518.719,578.438L518.719,609.225L493.286,609.225L493.286,578.438L518.719,578.438ZM465.177,582.454L465.177,609.225L445.098,609.225L445.098,582.454L465.177,582.454ZM576.277,577.1L576.277,609.225L556.199,609.225L556.199,577.1L576.277,577.1ZM407.619,581.115L407.619,607.887L387.54,607.887L387.54,581.115L407.619,581.115ZM707.791,494.109L707.791,526.234L682.358,526.234L682.358,494.109L707.791,494.109ZM361.103,498.125L361.103,526.234L338.348,526.234L338.348,498.125L361.103,498.125ZM646.217,495.447L646.217,526.234L619.446,526.234L619.446,495.447L646.217,495.447ZM766.688,494.109L766.688,524.896L739.916,524.896L739.916,494.109L766.688,494.109ZM473.543,495.447L473.543,522.219L453.464,522.219L453.464,495.447L473.543,495.447ZM527.085,491.432L527.085,522.219L501.652,522.219L501.652,491.432L527.085,491.432ZM584.643,490.093L584.643,522.219L564.565,522.219L564.565,490.093L584.643,490.093ZM415.984,494.109L415.984,520.88L395.906,520.88L395.906,494.109L415.984,494.109ZM692.732,397.063L692.732,429.189L667.299,429.189L667.299,397.063L692.732,397.063ZM346.045,401.079L346.045,429.189L323.289,429.189L323.289,401.079L346.045,401.079ZM631.158,398.402L631.158,429.189L604.387,429.189L604.387,398.402L631.158,398.402ZM751.629,397.063L751.629,427.85L724.858,427.85L724.858,397.063L751.629,397.063ZM569.584,393.048L569.584,425.173L549.506,425.173L549.506,393.048L569.584,393.048ZM512.026,394.386L512.026,425.173L486.594,425.173L486.594,394.386L512.026,394.386ZM458.484,398.402L458.484,425.173L438.405,425.173L438.405,398.402L458.484,398.402ZM400.926,397.063L400.926,423.834L380.847,423.834L380.847,397.063L400.926,397.063ZM696.079,303.364L696.079,335.489L670.646,335.489L670.646,303.364L696.079,303.364ZM349.391,307.38L349.391,335.489L326.635,335.489L326.635,307.38L349.391,307.38ZM634.505,304.702L634.505,335.489L607.733,335.489L607.733,304.702L634.505,304.702ZM754.975,303.364L754.975,334.151L728.204,334.151L728.204,303.364L754.975,303.364ZM461.83,304.702L461.83,331.474L441.752,331.474L441.752,304.702L461.83,304.702ZM515.373,300.687L515.373,331.474L489.94,331.474L489.94,300.687L515.373,300.687ZM572.931,299.348L572.931,331.474L552.852,331.474L552.852,299.348L572.931,299.348ZM404.272,303.364L404.272,330.135L384.194,330.135L384.194,303.364L404.272,303.364ZM692.732,206.318L692.732,238.444L667.299,238.444L667.299,206.318L692.732,206.318ZM346.045,210.334L346.045,238.444L323.289,238.444L323.289,210.334L346.045,210.334ZM631.158,207.657L631.158,238.444L604.387,238.444L604.387,207.657L631.158,207.657ZM751.629,206.318L751.629,237.105L724.858,237.105L724.858,206.318L751.629,206.318ZM569.584,202.302L569.584,234.428L549.506,234.428L549.506,202.302L569.584,202.302ZM458.484,207.657L458.484,234.428L438.405,234.428L438.405,207.657L458.484,207.657ZM512.026,203.641L512.026,234.428L486.594,234.428L486.594,203.641L512.026,203.641ZM400.926,206.318L400.926,233.089L380.847,233.089L380.847,206.318L400.926,206.318ZM689.386,122.658L689.386,154.783L663.953,154.783L663.953,122.658L689.386,122.658ZM342.698,126.674L342.698,154.783L319.943,154.783L319.943,126.674L342.698,126.674ZM627.812,123.997L627.812,154.783L601.041,154.783L601.041,123.997L627.812,123.997ZM748.283,122.658L748.283,153.445L721.511,153.445L721.511,122.658L748.283,122.658ZM455.137,123.997L455.137,150.768L435.059,150.768L435.059,123.997L455.137,123.997ZM508.68,119.981L508.68,150.768L483.247,150.768L483.247,119.981L508.68,119.981ZM566.238,118.642L566.238,150.768L546.16,150.768L546.16,118.642L566.238,118.642ZM397.579,122.658L397.579,149.429L377.501,149.429L377.501,122.658L397.579,122.658Z" style="fill:rgb(255,170,0);"/>
        </g>
        <g transform="matrix(0.660004,0,0,1,-850.706,-77.3693)">
            <path d="M2765.47,223.839L2773.04,220.829L2798.14,1131.32L2563.45,1294.51L2542.22,317.331L2540.51,318.022L1714.19,317.94L2048.1,228.48L2765.47,223.839Z" style="fill:rgb(163,37,37);"/>
        </g>
    </g>
    <g transform="matrix(-0.999986,0.00533678,-0.00533678,-0.999986,2990.09,1820.57)">
        <g transform="matrix(1,0,0,1,-2.57894,167.634)">
            <rect x="278.993" y="72.651" width="565.359" height="977.124" style="fill:rgb(197,39,39);"/>
            <path d="M707.791,830.423L707.791,862.548L682.358,862.548L682.358,830.423L707.791,830.423ZM646.217,831.761L646.217,862.548L619.446,862.548L619.446,831.761L646.217,831.761ZM361.103,834.438L361.103,862.548L338.348,862.548L338.348,834.438L361.103,834.438ZM766.688,830.423L766.688,861.21L739.917,861.21L739.917,830.423L766.688,830.423ZM527.085,827.745L527.085,858.532L501.652,858.532L501.652,827.745L527.085,827.745ZM473.543,831.761L473.543,858.532L453.464,858.532L453.464,831.761L473.543,831.761ZM584.643,826.407L584.643,858.532L564.565,858.532L564.565,826.407L584.643,826.407ZM415.985,830.423L415.985,857.194L395.906,857.194L395.906,830.423L415.985,830.423ZM704.445,748.436L704.445,780.561L679.012,780.561L679.012,748.436L704.445,748.436ZM642.871,749.774L642.871,780.561L616.099,780.561L616.099,749.774L642.871,749.774ZM357.757,752.451L357.757,780.561L335.001,780.561L335.001,752.451L357.757,752.451ZM763.341,748.436L763.341,779.223L736.57,779.223L736.57,748.436L763.341,748.436ZM523.739,745.759L523.739,776.546L498.306,776.546L498.306,745.759L523.739,745.759ZM470.196,749.774L470.196,776.546L450.118,776.546L450.118,749.774L470.196,749.774ZM581.297,744.42L581.297,776.546L561.218,776.546L561.218,744.42L581.297,744.42ZM412.638,748.436L412.638,775.207L392.56,775.207L392.56,748.436L412.638,748.436ZM641.198,669.46L641.198,700.247L614.426,700.247L614.426,669.46L641.198,669.46ZM702.771,668.122L702.771,700.247L677.339,700.247L677.339,668.122L702.771,668.122ZM356.084,672.138L356.084,700.247L333.328,700.247L333.328,672.138L356.084,672.138ZM761.668,668.122L761.668,698.909L734.897,698.909L734.897,668.122L761.668,668.122ZM468.523,669.46L468.523,696.232L448.445,696.232L448.445,669.46L468.523,669.46ZM579.624,664.106L579.624,696.232L559.545,696.232L559.545,664.106L579.624,664.106ZM522.066,665.445L522.066,696.232L496.633,696.232L496.633,665.445L522.066,665.445ZM410.965,668.122L410.965,694.893L390.887,694.893L390.887,668.122L410.965,668.122ZM699.425,581.115L699.425,613.241L673.992,613.241L673.992,581.115L699.425,581.115ZM637.851,582.454L637.851,613.241L611.08,613.241L611.08,582.454L637.851,582.454ZM352.737,585.131L352.737,613.241L329.982,613.241L329.982,585.131L352.737,585.131ZM758.322,581.115L758.322,611.902L731.551,611.902L731.551,581.115L758.322,581.115ZM518.719,578.438L518.719,609.225L493.286,609.225L493.286,578.438L518.719,578.438ZM465.177,582.454L465.177,609.225L445.098,609.225L445.098,582.454L465.177,582.454ZM576.277,577.1L576.277,609.225L556.199,609.225L556.199,577.1L576.277,577.1ZM407.619,581.115L407.619,607.887L387.54,607.887L387.54,581.115L407.619,581.115ZM707.791,494.109L707.791,526.234L682.358,526.234L682.358,494.109L707.791,494.109ZM361.103,498.125L361.103,526.234L338.348,526.234L338.348,498.125L361.103,498.125ZM646.217,495.447L646.217,526.234L619.446,526.234L619.446,495.447L646.217,495.447ZM766.688,494.109L766.688,524.896L739.916,524.896L739.916,494.109L766.688,494.109ZM473.543,495.447L473.543,522.219L453.464,522.219L453.464,495.447L473.543,495.447ZM527.085,491.432L527.085,522.219L501.652,522.219L501.652,491.432L527.085,491.432ZM584.643,490.093L584.643,522.219L564.565,522.219L564.565,490.093L584.643,490.093ZM415.984,494.109L415.984,520.88L395.906,520.88L395.906,494.109L415.984,494.109ZM692.732,397.063L692.732,429.189L667.299,429.189L667.299,397.063L692.732,397.063ZM346.045,401.079L346.045,429.189L323.289,429.189L323.289,401.079L346.045,401.079ZM631.158,398.402L631.158,429.189L604.387,429.189L604.387,398.402L631.158,398.402ZM751.629,397.063L751.629,427.85L724.858,427.85L724.858,397.063L751.629,397.063ZM569.584,393.048L569.584,425.173L549.506,425.173L549.506,393.048L569.584,393.048ZM512.026,394.386L512.026,425.173L486.594,425.173L486.594,394.386L512.026,394.386ZM458.484,398.402L458.484,425.173L438.405,425.173L438.405,398.402L458.484,398.402ZM400.926,397.063L400.926,423.834L380.847,423.834L380.847,397.063L400.926,397.063ZM696.079,303.364L696.079,335.489L670.646,335.489L670.646,303.364L696.079,303.364ZM349.391,307.38L349.391,335.489L326.635,335.489L326.635,307.38L349.391,307.38ZM634.505,304.702L634.505,335.489L607.733,335.489L607.733,304.702L634.505,304.702ZM754.975,303.364L754.975,334.151L728.204,334.151L728.204,303.364L754.975,303.364ZM461.83,304.702L461.83,331.474L441.752,331.474L441.752,304.702L461.83,304.702ZM515.373,300.687L515.373,331.474L489.94,331.474L489.94,300.687L515.373,300.687ZM572.931,299.348L572.931,331.474L552.852,331.474L552.852,299.348L572.931,299.348ZM404.272,303.364L404.272,330.135L384.194,330.135L384.194,303.364L404.272,303.364ZM692.732,206.318L692.732,238.444L667.299,238.444L667.299,206.318L692.732,206.318ZM346.045,210.334L346.045,238.444L323.289,238.444L323.289,210.334L346.045,210.334ZM631.158,207.657L631.158,238.444L604.387,238.444L604.387,207.657L631.158,207.657ZM751.629,206.318L751.629,237.105L724.858,237.105L724.858,206.318L751.629,206.318ZM569.584,202.302L569.584,234.428L549.506,234.428L549.506,202.302L569.584,202.302ZM458.484,207.657L458.484,234.428L438.405,234.428L438.405,207.657L458.484,207.657ZM512.026,203.641L512.026,234.428L486.594,234.428L486.594,203.641L512.026,203.641ZM400.926,206.318L400.926,233.089L380.847,233.089L380.847,206.318L400.926,206.318ZM689.386,122.658L689.386,154.783L663.953,154.783L663.953,122.658L689.386,122.658ZM342.698,126.674L342.698,154.783L319.943,154.783L319.943,126.674L342.698,126.674ZM627.812,123.997L627.812,154.783L601.041,154.783L601.041,123.997L627.812,123.997ZM748.283,122.658L748.283,153.445L721.511,153.445L721.511,122.658L748.283,122.658ZM455.137,123.997L455.137,150.768L435.059,150.768L435.059,123.997L455.137,123.997ZM508.68,119.981L508.68,150.768L483.247,150.768L483.247,119.981L508.68,119.981ZM566.238,118.642L566.238,150.768L546.16,150.768L546.16,118.642L566.238,118.642ZM397.579,122.658L397.579,149.429L377.501,149.429L377.501,122.658L397.579,122.658Z" style="fill:rgb(255,170,0);"/>
        </g>
        <g transform="matrix(1.09201,0,0,1.02059,-91.6489,-3.16685)">
            <path d="M841.337,233.724L980.904,143.668L996.076,1035.79L854.232,1195.68L841.337,233.724Z" style="fill:rgb(163,37,37);"/>
        </g>
        <path d="M826.044,240.652L280.667,240.571L501.048,151.111L979.179,146.423L826.044,240.652Z" style="fill:rgb(163,37,37);"/>
    </g>
    <g transform="matrix(-1.08024,0.0057651,-0.00385876,-0.723039,2216.37,1336.01)">
        <g transform="matrix(1,0,0,1,-2.57894,167.634)">
            <rect x="278.993" y="72.651" width="565.359" height="977.124" style="fill:rgb(197,39,39);"/>
            <path d="M707.791,830.423L707.791,862.548L682.358,862.548L682.358,830.423L707.791,830.423ZM646.217,831.761L646.217,862.548L619.446,862.548L619.446,831.761L646.217,831.761ZM361.103,834.438L361.103,862.548L338.348,862.548L338.348,834.438L361.103,834.438ZM766.688,830.423L766.688,861.21L739.917,861.21L739.917,830.423L766.688,830.423ZM527.085,827.745L527.085,858.532L501.652,858.532L501.652,827.745L527.085,827.745ZM473.543,831.761L473.543,858.532L453.464,858.532L453.464,831.761L473.543,831.761ZM584.643,826.407L584.643,858.532L564.565,858.532L564.565,826.407L584.643,826.407ZM415.985,830.423L415.985,857.194L395.906,857.194L395.906,830.423L415.985,830.423ZM704.445,748.436L704.445,780.561L679.012,780.561L679.012,748.436L704.445,748.436ZM642.871,749.774L642.871,780.561L616.099,780.561L616.099,749.774L642.871,749.774ZM357.757,752.451L357.757,780.561L335.001,780.561L335.001,752.451L357.757,752.451ZM763.341,748.436L763.341,779.223L736.57,779.223L736.57,748.436L763.341,748.436ZM523.739,745.759L523.739,776.546L498.306,776.546L498.306,745.759L523.739,745.759ZM470.196,749.774L470.196,776.546L450.118,776.546L450.118,749.774L470.196,749.774ZM581.297,744.42L581.297,776.546L561.218,776.546L561.218,744.42L581.297,744.42ZM412.638,748.436L412.638,775.207L392.56,775.207L392.56,748.436L412.638,748.436ZM641.198,669.46L641.198,700.247L614.426,700.247L614.426,669.46L641.198,669.46ZM702.771,668.122L702.771,700.247L677.339,700.247L677.339,668.122L702.771,668.122ZM356.084,672.138L356.084,700.247L333.328,700.247L333.328,672.138L356.084,672.138ZM761.668,668.122L761.668,698.909L734.897,698.909L734.897,668.122L761.668,668.122ZM468.523,669.46L468.523,696.232L448.445,696.232L448.445,669.46L468.523,669.46ZM579.624,664.106L579.624,696.232L559.545,696.232L559.545,664.106L579.624,664.106ZM522.066,665.445L522.066,696.232L496.633,696.232L496.633,665.445L522.066,665.445ZM410.965,668.122L410.965,694.893L390.887,694.893L390.887,668.122L410.965,668.122ZM699.425,581.115L699.425,613.241L673.992,613.241L673.992,581.115L699.425,581.115ZM637.851,582.454L637.851,613.241L611.08,613.241L611.08,582.454L637.851,582.454ZM352.737,585.131L352.737,613.241L329.982,613.241L329.982,585.131L352.737,585.131ZM758.322,581.115L758.322,611.902L731.551,611.902L731.551,581.115L758.322,581.115ZM518.719,578.438L518.719,609.225L493.286,609.225L493.286,578.438L518.719,578.438ZM465.177,582.454L465.177,609.225L445.098,609.225L445.098,582.454L465.177,582.454ZM576.277,577.1L576.277,609.225L556.199,609.225L556.199,577.1L576.277,577.1ZM407.619,581.115L407.619,607.887L387.54,607.887L387.54,581.115L407.619,581.115ZM707.791,494.109L707.791,526.234L682.358,526.234L682.358,494.109L707.791,494.109ZM361.103,498.125L361.103,526.234L338.348,526.234L338.348,498.125L361.103,498.125ZM646.217,495.447L646.217,526.234L619.446,526.234L619.446,495.447L646.217,495.447ZM766.688,494.109L766.688,524.896L739.916,524.896L739.916,494.109L766.688,494.109ZM473.543,495.447L473.543,522.219L453.464,522.219L453.464,495.447L473.543,495.447ZM527.085,491.432L527.085,522.219L501.652,522.219L501.652,491.432L527.085,491.432ZM584.643,490.093L584.643,522.219L564.565,522.219L564.565,490.093L584.643,490.093ZM415.984,494.109L415.984,520.88L395.906,520.88L395.906,494.109L415.984,494.109ZM692.732,397.063L692.732,429.189L667.299,429.189L667.299,397.063L692.732,397.063ZM346.045,401.079L346.045,429.189L323.289,429.189L323.289,401.079L346.045,401.079ZM631.158,398.402L631.158,429.189L604.387,429.189L604.387,398.402L631.158,398.402ZM751.629,397.063L751.629,427.85L724.858,427.85L724.858,397.063L751.629,397.063ZM569.584,393.048L569.584,425.173L549.506,425.173L549.506,393.048L569.584,393.048ZM512.026,394.386L512.026,425.173L486.594,425.173L486.594,394.386L512.026,394.386ZM458.484,398.402L458.484,425.173L438.405,425.173L438.405,398.402L458.484,398.402ZM400.926,397.063L400.926,423.834L380.847,423.834L380.847,397.063L400.926,397.063ZM696.079,303.364L696.079,335.489L670.646,335.489L670.646,303.364L696.079,303.364ZM349.391,307.38L349.391,335.489L326.635,335.489L326.635,307.38L349.391,307.38ZM634.505,304.702L634.505,335.489L607.733,335.489L607.733,304.702L634.505,304.702ZM754.975,303.364L754.975,334.151L728.204,334.151L728.204,303.364L754.975,303.364ZM461.83,304.702L461.83,331.474L441.752,331.474L441.752,304.702L461.83,304.702ZM515.373,300.687L515.373,331.474L489.94,331.474L489.94,300.687L515.373,300.687ZM572.931,299.348L572.931,331.474L552.852,331.474L552.852,299.348L572.931,299.348ZM404.272,303.364L404.272,330.135L384.194,330.135L384.194,303.364L404.272,303.364ZM692.732,206.318L692.732,238.444L667.299,238.444L667.299,206.318L692.732,206.318ZM346.045,210.334L346.045,238.444L323.289,238.444L323.289,210.334L346.045,210.334ZM631.158,207.657L631.158,238.444L604.387,238.444L604.387,207.657L631.158,207.657ZM751.629,206.318L751.629,237.105L724.858,237.105L724.858,206.318L751.629,206.318ZM569.584,202.302L569.584,234.428L549.506,234.428L549.506,202.302L569.584,202.302ZM458.484,207.657L458.484,234.428L438.405,234.428L438.405,207.657L458.484,207.657ZM512.026,203.641L512.026,234.428L486.594,234.428L486.594,203.641L512.026,203.641ZM400.926,206.318L400.926,233.089L380.847,233.089L380.847,206.318L400.926,206.318ZM689.386,122.658L689.386,154.783L663.953,154.783L663.953,122.658L689.386,122.658ZM342.698,126.674L342.698,154.783L319.943,154.783L319.943,126.674L342.698,126.674ZM627.812,123.997L627.812,154.783L601.041,154.783L601.041,123.997L627.812,123.997ZM748.283,122.658L748.283,153.445L721.511,153.445L721.511,122.658L748.283,122.658ZM455.137,123.997L455.137,150.768L435.059,150.768L435.059,123.997L455.137,123.997ZM508.68,119.981L508.68,150.768L483.247,150.768L483.247,119.981L508.68,119.981ZM566.238,118.642L566.238,150.768L546.16,150.768L546.16,118.642L566.238,118.642ZM397.579,122.658L397.579,149.429L377.501,149.429L377.501,122.658L397.579,122.658Z" style="fill:rgb(255,170,0);"/>
        </g>
        <g transform="matrix(1.09201,0,0,1.02059,-91.6489,-3.16685)">
            <path d="M841.337,233.724L980.904,143.668L996.076,1035.79L854.232,1195.68L841.337,233.724Z" style="fill:rgb(163,37,37);"/>
        </g>
        <path d="M826.044,240.652L280.667,240.571L501.048,151.111L979.179,146.423L826.044,240.652Z" style="fill:rgb(163,37,37);"/>
    </g>
</svg>
