<?xml version="1.0" encoding="UTF-8" standalone="no"?>
<!DOCTYPE svg PUBLIC "-//W3C//DTD SVG 1.1//EN" "http://www.w3.org/Graphics/SVG/1.1/DTD/svg11.dtd">
<svg width="100%" height="100%" viewBox="0 0 2458 1559" version="1.1" xmlns="http://www.w3.org/2000/svg" xmlns:xlink="http://www.w3.org/1999/xlink" xml:space="preserve" xmlns:serif="http://www.serif.com/" style="fill-rule:evenodd;clip-rule:evenodd;">
    <g>
        <g transform="matrix(-0.999998,0.0020488,-0.0020488,-0.999998,2458.96,1555.67)">
            <rect x="0" y="-0.001" width="2455" height="930" style="fill:rgb(17,35,55);"/>
        </g>
        <g transform="matrix(-0.999998,0.0020488,-0.0020488,-0.999998,2458.96,1555.67)">
            <rect x="0" y="1319" width="2455" height="235" style="fill:rgb(217,75,83);"/>
        </g>
        <g transform="matrix(-0.999998,0.0020488,-0.0020488,-0.999998,2458.96,1555.67)">
            <rect x="0" y="1085" width="2455" height="235" style="fill:rgb(205,24,26);"/>
        </g>
        <g transform="matrix(-0.999998,0.0020488,-0.0020488,-0.999998,2458.96,1555.67)">
            <rect x="0" y="850.999" width="2455" height="236" style="fill:rgb(183,25,28);"/>
        </g>
        <g transform="matrix(-0.999998,0.0020488,-0.0020488,-0.999998,2458.96,1555.67)">
            <rect x="0" y="615.999" width="2455" height="235" style="fill:rgb(153,25,24);"/>
        </g>
        <g transform="matrix(-0.999998,0.0020488,-0.0020488,-0.999998,2458.96,1555.67)">
            <path d="M0,615.999L1625,615.999L1625,-0.001L0,-0.001L0,615.999ZM1828,615.999L2455,615.999L2455,-0.001L1828,-0.001L1828,615.999Z"/>
        </g>
        <g transform="matrix(-0.999998,0.0020488,-0.0020488,-0.999998,2458.96,1555.67)">
            <path d="M612.763,341.999L442.022,167.054L346.238,243.683L283.255,216.84L177.993,312.11L106.521,265.575L0,318.932L0,288.817L111.132,233.153L171.665,272.57L270.068,183.51L335.32,211.32L446.972,122L615.056,294.223L737.314,182.31L832.536,284.1L937.964,203.547L1005.97,235.165L1190.43,144.103L1297.47,234.251L1466.61,165.422L1625,290.614L1625,331.334L1455.26,197.164L1284.96,266.465L1180.79,178.738L1006.95,264.554L946.722,236.551L825.854,328.904L734.154,230.882L612.763,341.999Z" style="fill:rgb(19,55,89);"/>
        </g>
        <g transform="matrix(-0.999998,0.0020488,-0.0020488,-0.999998,2458.96,1555.67)">
            <path d="M1828,179.999L2455,179.999M1828,115.999L2455,115.999M1828,51.999L2455,51.999M1828,239.999L2455,239.999M1828,300.999L2455,300.999M1828,361.999L2455,361.999M1828,422.499L2455,422.499" style="fill:none;stroke:rgb(19,55,89);stroke-width:9.72px;"/>
        </g>
        <g transform="matrix(-0.999998,0.0020488,-0.0020488,-0.999998,2458.96,1555.67)">
            <path d="M0,449.999L1622,449.999M0,503.999L1622,503.999M0,557.999L1622,557.999" style="fill:none;stroke:rgb(19,55,89);stroke-width:10.52px;"/>
        </g>
        <g transform="matrix(-0.999998,0.0020488,-0.0020488,-0.999998,2458.96,1555.67)">
            <path d="M1293.69,836.678C1267.92,845.123 1234.75,850.186 1198.53,850.186C1162.31,850.186 1129.11,845.123 1103.35,836.678C1070.77,826.028 1050.03,809.997 1050.03,792.075L1050.03,881.301C1050.03,913.381 1116.52,939.389 1198.53,939.389C1280.52,939.389 1347.01,913.382 1347.01,881.301L1347.01,792.075C1347.01,809.997 1326.27,826.028 1293.69,836.678" style="fill:rgb(232,232,232);"/>
        </g>
        <g transform="matrix(-0.999998,0.0020488,-0.0020488,-0.999998,2458.96,1555.67)">
            <path d="M1132.83,829.168C1152.12,832.862 1174.57,834.989 1198.53,834.989C1222.47,834.989 1244.92,832.862 1264.21,829.168C1303.01,821.739 1329.07,807.913 1329.07,792.078C1329.07,768.377 1270.63,749.166 1198.53,749.166C1126.41,749.166 1067.96,768.376 1067.96,792.077C1067.96,807.913 1094.03,821.739 1132.83,829.168" style="fill:rgb(19,55,89);"/>
        </g>
        <g transform="matrix(-0.999998,0.0020488,-0.0020488,-0.999998,2458.96,1555.67)">
            <path d="M1198.53,749.166C1270.63,749.166 1329.07,768.376 1329.07,792.075C1329.07,807.913 1303.01,821.739 1264.21,829.168C1244.92,832.862 1222.47,834.989 1198.53,834.989C1174.57,834.989 1152.12,832.862 1132.83,829.169C1094.03,821.739 1067.97,807.913 1067.97,792.075C1067.97,768.377 1126.41,749.166 1198.53,749.166M1103.35,836.677C1129.11,845.122 1162.31,850.186 1198.53,850.186C1234.75,850.186 1267.93,845.122 1293.69,836.677C1326.27,826.027 1347.01,809.999 1347.01,792.075C1347.01,759.995 1280.52,733.987 1198.53,733.987C1116.52,733.987 1050.02,759.994 1050.02,792.075C1050.02,809.999 1070.77,826.027 1103.35,836.677" style="fill:white;"/>
        </g>
        <g transform="matrix(-0.999998,0.0020488,-0.0020488,-0.999998,2458.96,1555.67)">
            <path d="M1650.56,757.065C1627.89,764.494 1598.7,768.951 1566.84,768.951C1534.98,768.951 1505.77,764.494 1483.1,757.065C1454.44,747.699 1436.19,733.593 1436.19,717.825L1436.19,796.322C1436.19,824.548 1494.69,847.426 1566.84,847.426C1638.97,847.426 1697.47,824.548 1697.47,796.322L1697.47,717.826C1697.47,733.593 1679.23,747.699 1650.56,757.065" style="fill:rgb(232,232,232);"/>
        </g>
        <g transform="matrix(-0.999998,0.0020488,-0.0020488,-0.999998,2458.96,1555.67)">
            <path d="M1509.04,750.457C1526.01,753.711 1545.76,755.58 1566.84,755.58C1587.9,755.58 1607.65,753.711 1624.62,750.457C1658.76,743.923 1681.69,731.757 1681.69,717.827C1681.69,696.976 1630.27,680.071 1566.84,680.071C1503.39,680.071 1451.98,696.976 1451.98,717.827C1451.98,731.757 1474.91,743.923 1509.04,750.457" style="fill:rgb(19,55,89);"/>
        </g>
        <g transform="matrix(-0.999998,0.0020488,-0.0020488,-0.999998,2458.96,1555.67)">
            <path d="M1566.84,680.072C1630.27,680.072 1681.69,696.974 1681.69,717.825C1681.69,731.759 1658.76,743.921 1624.63,750.459C1607.65,753.709 1587.9,755.579 1566.84,755.579C1545.76,755.579 1526.01,753.709 1509.04,750.459C1474.91,743.921 1451.98,731.759 1451.98,717.825C1451.98,696.975 1503.4,680.072 1566.84,680.072M1483.1,757.064C1505.77,764.494 1534.98,768.95 1566.84,768.95C1598.7,768.95 1627.89,764.493 1650.56,757.064C1679.23,747.698 1697.47,733.592 1697.47,717.825C1697.47,689.599 1638.97,666.721 1566.84,666.721C1494.69,666.721 1436.19,689.599 1436.19,717.825C1436.19,733.592 1454.44,747.698 1483.1,757.065" style="fill:white;"/>
        </g>
        <g transform="matrix(-0.999998,0.0020488,-0.0020488,-0.999998,2458.96,1555.67)">
            <path d="M930.12,608.854C912.341,614.678 889.449,618.176 864.461,618.176C839.474,618.176 816.569,614.678 798.791,608.854C776.31,601.505 762,590.445 762,578.08L762,639.638C762,661.778 807.877,679.721 864.461,679.721C921.033,679.721 966.911,661.779 966.911,639.638L966.911,578.08C966.911,590.444 952.599,601.504 930.12,608.853" style="fill:rgb(232,232,232);"/>
        </g>
        <g transform="matrix(-0.999998,0.0020488,-0.0020488,-0.999998,2458.96,1555.67)">
            <path d="M819.132,603.671C832.442,606.221 847.932,607.689 864.462,607.689C880.978,607.689 896.468,606.221 909.778,603.671C936.548,598.545 954.532,589.004 954.532,578.081C954.532,561.728 914.206,548.472 864.462,548.472C814.704,548.472 774.378,561.728 774.378,578.08C774.378,589.004 792.361,598.545 819.132,603.671" style="fill:rgb(19,55,89);"/>
        </g>
        <g transform="matrix(-0.999998,0.0020488,-0.0020488,-0.999998,2458.96,1555.67)">
            <path d="M864.462,548.472C914.205,548.472 954.535,561.728 954.535,578.08C954.535,589.006 936.548,598.548 909.778,603.67C896.468,606.223 880.981,607.688 864.462,607.688C847.932,607.688 832.441,606.223 819.132,603.671C792.361,598.548 774.377,589.006 774.377,578.08C774.377,561.728 814.704,548.472 864.462,548.472M798.788,608.853C816.567,614.677 839.474,618.175 864.462,618.175C889.449,618.175 912.342,614.677 930.121,608.853C952.601,601.507 966.911,590.444 966.911,578.08C966.911,555.945 921.034,538 864.461,538C807.878,538 762.001,555.945 762.001,578.08C762.001,590.444 776.309,601.507 798.788,608.853" style="fill:white;"/>
        </g>
        <g transform="matrix(-0.999998,0.0020488,-0.0020488,-0.999998,2458.96,1555.67)">
            <path d="M1716.52,1103.95C1680.27,1115.83 1633.6,1122.96 1582.65,1122.96C1531.7,1122.96 1485,1115.83 1448.76,1103.95C1402.92,1088.97 1373.75,1066.42 1373.75,1041.21L1373.75,1166.72C1373.75,1211.86 1467.29,1248.44 1582.65,1248.44C1697.99,1248.44 1791.53,1211.86 1791.53,1166.72L1791.53,1041.21C1791.53,1066.42 1762.35,1088.97 1716.52,1103.95" style="fill:rgb(232,232,232);"/>
        </g>
        <g transform="matrix(-0.999998,0.0020488,-0.0020488,-0.999998,2458.96,1555.67)">
            <path d="M1490.23,1093.39C1517.37,1098.59 1548.95,1101.58 1582.65,1101.58C1616.33,1101.58 1647.91,1098.59 1675.04,1093.39C1729.63,1082.94 1766.29,1063.49 1766.29,1041.21C1766.29,1007.87 1684.07,980.846 1582.65,980.846C1481.2,980.846 1398.98,1007.87 1398.98,1041.21C1398.98,1063.49 1435.65,1082.94 1490.23,1093.39" style="fill:rgb(19,55,89);"/>
        </g>
        <g transform="matrix(-0.999998,0.0020488,-0.0020488,-0.999998,2458.96,1555.67)">
            <path d="M1582.65,980.846C1684.07,980.846 1766.29,1007.87 1766.29,1041.21C1766.29,1063.49 1729.62,1082.94 1675.05,1093.39C1647.91,1098.59 1616.33,1101.58 1582.65,1101.58C1548.95,1101.58 1517.37,1098.59 1490.23,1093.39C1435.65,1082.94 1398.98,1063.49 1398.98,1041.21C1398.98,1007.87 1481.2,980.846 1582.65,980.846M1448.76,1103.95C1485.01,1115.83 1531.7,1122.96 1582.65,1122.96C1633.6,1122.96 1680.27,1115.83 1716.52,1103.95C1762.35,1088.97 1791.53,1066.42 1791.53,1041.21C1791.53,996.078 1697.99,959.493 1582.65,959.493C1467.29,959.493 1373.75,996.078 1373.75,1041.21C1373.75,1066.42 1402.93,1088.97 1448.76,1103.95" style="fill:white;"/>
        </g>
        <g transform="matrix(-0.999998,0.0020488,-0.0020488,-0.999998,2458.96,1555.67)">
            <path d="M1251.5,1011.65L1246.65,994.324L1257.39,977L1274.37,979.077L1282.34,998.829L1282.34,1019.62L1301.74,1024.12L1316.99,1072.29L1306.6,1086.14L1312.83,1119.75L1301.05,1125.3L1301.74,1139.16L1296.89,1139.16L1290.66,1185.24L1293.43,1206.38L1288.58,1262.16L1295.85,1265.63L1296.55,1269.1L1281.82,1277.07L1268.48,1275.33L1269.52,1237.91L1269.86,1186.63L1265.36,1147.82L1253.92,1177.62L1243.88,1224.05L1239.37,1263.55L1242.49,1274.98L1232.1,1277.06L1212,1272.91L1214.77,1265.98L1222.05,1262.51L1223.78,1220.93L1230.71,1145.05L1225.27,1141.59L1221.01,1128.42L1215.12,1127.03L1212,1076.44L1219.28,1038.68L1233.48,1019.62L1251.5,1011.65Z" style="fill:rgb(11,20,29);"/>
        </g>
        <g transform="matrix(-0.999998,0.0020488,-0.0020488,-0.999998,2458.96,1555.67)">
            <path d="M2457.36,1426.07C2384.03,1446.59 2294.28,1458.66 2197.27,1458.66C2087.96,1458.66 1987.77,1443.37 1910,1417.89C1811.66,1385.75 1749.06,1337.36 1749.06,1283.27L1749.06,1552.56C1749.06,1554.44 1749.16,1556.32 1749.32,1558.19L2457.36,1558.19L2457.36,1426.07L2457.36,1426.07Z" style="fill:rgb(232,232,232);"/>
        </g>
        <g transform="matrix(-0.999998,0.0020488,-0.0020488,-0.999998,2458.96,1555.67)">
            <path d="M2457.36,1186.01C2387.97,1165.94 2296.96,1153.76 2197.27,1153.76C1979.61,1153.76 1803.21,1211.74 1803.21,1283.27C1803.21,1331.06 1881.88,1372.79 1998.98,1395.22C2057.2,1406.37 2124.96,1412.79 2197.27,1412.79C2269.52,1412.79 2337.28,1406.37 2395.5,1395.22C2417.59,1390.99 2438.29,1386.07 2457.36,1380.55L2457.36,1186.01Z" style="fill:rgb(19,55,89);"/>
        </g>
        <g transform="matrix(-0.999998,0.0020488,-0.0020488,-0.999998,2458.96,1555.67)">
            <path d="M2457.36,1380.55C2438.29,1386.07 2417.59,1390.99 2395.5,1395.22C2337.28,1406.37 2269.52,1412.79 2197.27,1412.79C2124.96,1412.79 2057.2,1406.37 1998.98,1395.22C1881.88,1372.8 1803.21,1331.06 1803.21,1283.27C1803.21,1211.74 1979.61,1153.76 2197.27,1153.76C2296.96,1153.76 2387.97,1165.94 2457.36,1186.01L2457.36,1140.52C2384.02,1120.02 2294.26,1107.95 2197.27,1107.95C1949.75,1107.95 1749.06,1186.44 1749.06,1283.27C1749.06,1337.36 1811.66,1385.75 1910,1417.89C1987.77,1443.37 2087.96,1458.66 2197.27,1458.66C2294.28,1458.66 2384.03,1446.6 2457.36,1426.07L2457.36,1380.55Z" style="fill:white;"/>
        </g>
    </g>
</svg>
